%TF.GenerationSoftware,KiCad,Pcbnew,8.0.3*%
%TF.CreationDate,2024-06-16T20:35:08-04:00*%
%TF.ProjectId,JTAGAdapter,4a544147-4164-4617-9074-65722e6b6963,rev?*%
%TF.SameCoordinates,Original*%
%TF.FileFunction,Copper,L2,Bot*%
%TF.FilePolarity,Positive*%
%FSLAX46Y46*%
G04 Gerber Fmt 4.6, Leading zero omitted, Abs format (unit mm)*
G04 Created by KiCad (PCBNEW 8.0.3) date 2024-06-16 20:35:08*
%MOMM*%
%LPD*%
G01*
G04 APERTURE LIST*
%TA.AperFunction,ComponentPad*%
%ADD10O,1.000000X1.000000*%
%TD*%
%TA.AperFunction,ComponentPad*%
%ADD11R,1.000000X1.000000*%
%TD*%
%TA.AperFunction,ComponentPad*%
%ADD12R,1.700000X1.700000*%
%TD*%
%TA.AperFunction,ComponentPad*%
%ADD13O,1.700000X1.700000*%
%TD*%
G04 APERTURE END LIST*
D10*
%TO.P,J3,10,~{RESET}*%
%TO.N,Net-(J1-~{RESET})*%
X121461000Y-92921000D03*
%TO.P,J3,9,GNDDetect*%
%TO.N,GND*%
X120191000Y-92921000D03*
%TO.P,J3,8,NC/TDI*%
%TO.N,Net-(J1-NC{slash}TDI)*%
X121461000Y-91651000D03*
%TO.P,J3,7,KEY*%
%TO.N,unconnected-(J3-KEY-Pad7)*%
X120191000Y-91651000D03*
%TO.P,J3,6,SWO/TDO*%
%TO.N,Net-(J1-SWO{slash}TDO)*%
X121461000Y-90381000D03*
%TO.P,J3,5,GND*%
%TO.N,GND*%
X120191000Y-90381000D03*
%TO.P,J3,4,SWCLK/TCK*%
%TO.N,Net-(J1-SWCLK{slash}TCK)*%
X121461000Y-89111000D03*
%TO.P,J3,3,GND*%
%TO.N,GND*%
X120191000Y-89111000D03*
%TO.P,J3,2,SWDIO/TMS*%
%TO.N,Net-(J1-SWDIO{slash}TMS)*%
X121461000Y-87841000D03*
D11*
%TO.P,J3,1,VTref*%
%TO.N,+3V3*%
X120191000Y-87841000D03*
%TD*%
D12*
%TO.P,J2,1,TCK*%
%TO.N,Net-(J1-SWCLK{slash}TCK)*%
X136746000Y-86503500D03*
D13*
%TO.P,J2,2,GND*%
%TO.N,GND*%
X139286000Y-86503500D03*
%TO.P,J2,3,TDO*%
%TO.N,Net-(J1-SWO{slash}TDO)*%
X136746000Y-89043500D03*
%TO.P,J2,4,PGM/NC*%
%TO.N,unconnected-(J2-PGM{slash}NC-Pad4)*%
X139286000Y-89043500D03*
%TO.P,J2,5,TMS*%
%TO.N,Net-(J1-SWDIO{slash}TMS)*%
X136746000Y-91583500D03*
%TO.P,J2,6,VJTAG*%
%TO.N,+3V3*%
X139286000Y-91583500D03*
%TO.P,J2,7,VPUMP*%
%TO.N,unconnected-(J2-VPUMP-Pad7)*%
X136746000Y-94123500D03*
%TO.P,J2,8,~{TRST}*%
%TO.N,Net-(J1-~{RESET})*%
X139286000Y-94123500D03*
%TO.P,J2,9,TDI*%
%TO.N,Net-(J1-NC{slash}TDI)*%
X136746000Y-96663500D03*
%TO.P,J2,10,GND*%
%TO.N,GND*%
X139286000Y-96663500D03*
%TD*%
D12*
%TO.P,J1,1,VTref*%
%TO.N,+3V3*%
X127797000Y-86499000D03*
D13*
%TO.P,J1,2,SWDIO/TMS*%
%TO.N,Net-(J1-SWDIO{slash}TMS)*%
X130337000Y-86499000D03*
%TO.P,J1,3,GND*%
%TO.N,GND*%
X127797000Y-89039000D03*
%TO.P,J1,4,SWCLK/TCK*%
%TO.N,Net-(J1-SWCLK{slash}TCK)*%
X130337000Y-89039000D03*
%TO.P,J1,5,GND*%
%TO.N,GND*%
X127797000Y-91579000D03*
%TO.P,J1,6,SWO/TDO*%
%TO.N,Net-(J1-SWO{slash}TDO)*%
X130337000Y-91579000D03*
%TO.P,J1,7,KEY*%
%TO.N,unconnected-(J1-KEY-Pad7)*%
X127797000Y-94119000D03*
%TO.P,J1,8,NC/TDI*%
%TO.N,Net-(J1-NC{slash}TDI)*%
X130337000Y-94119000D03*
%TO.P,J1,9,GNDDetect*%
%TO.N,GND*%
X127797000Y-96659000D03*
%TO.P,J1,10,~{RESET}*%
%TO.N,Net-(J1-~{RESET})*%
X130337000Y-96659000D03*
%TD*%
%TA.AperFunction,Conductor*%
%TO.N,GND*%
G36*
X143002642Y-81500688D02*
G01*
X143208118Y-81515385D01*
X143218567Y-81516887D01*
X143274033Y-81528952D01*
X143417296Y-81560117D01*
X143427406Y-81563085D01*
X143617965Y-81634161D01*
X143627556Y-81638541D01*
X143747496Y-81704033D01*
X143806041Y-81736001D01*
X143814924Y-81741709D01*
X143977727Y-81863582D01*
X143985706Y-81870496D01*
X144129503Y-82014293D01*
X144136417Y-82022272D01*
X144258290Y-82185075D01*
X144263998Y-82193958D01*
X144361456Y-82372439D01*
X144365842Y-82382042D01*
X144436909Y-82572578D01*
X144439884Y-82582710D01*
X144483112Y-82781432D01*
X144484614Y-82791882D01*
X144499300Y-82997214D01*
X144499489Y-83002705D01*
X144459703Y-96920438D01*
X144459500Y-96923492D01*
X144459500Y-96989860D01*
X144459311Y-96995139D01*
X144444614Y-97200617D01*
X144443112Y-97211067D01*
X144399884Y-97409789D01*
X144396909Y-97419919D01*
X144388708Y-97441909D01*
X144325842Y-97610457D01*
X144321456Y-97620060D01*
X144223998Y-97798541D01*
X144218290Y-97807424D01*
X144096417Y-97970227D01*
X144089503Y-97978206D01*
X143945706Y-98122003D01*
X143937727Y-98128917D01*
X143774924Y-98250790D01*
X143766041Y-98256498D01*
X143587560Y-98353956D01*
X143577957Y-98358342D01*
X143387421Y-98429409D01*
X143377289Y-98432384D01*
X143178567Y-98475612D01*
X143168118Y-98477114D01*
X142985297Y-98490190D01*
X142962641Y-98491811D01*
X142957364Y-98492000D01*
X116962636Y-98492000D01*
X116957358Y-98491811D01*
X116932878Y-98490060D01*
X116751881Y-98477114D01*
X116741432Y-98475612D01*
X116542710Y-98432384D01*
X116532584Y-98429410D01*
X116342040Y-98358341D01*
X116332439Y-98353956D01*
X116153958Y-98256498D01*
X116145075Y-98250790D01*
X115982272Y-98128917D01*
X115974293Y-98122003D01*
X115830496Y-97978206D01*
X115823582Y-97970227D01*
X115701709Y-97807424D01*
X115696001Y-97798541D01*
X115598543Y-97620060D01*
X115594161Y-97610465D01*
X115523085Y-97419906D01*
X115520117Y-97409796D01*
X115476887Y-97211067D01*
X115475385Y-97200618D01*
X115471318Y-97143752D01*
X115460697Y-96995261D01*
X115460509Y-96989814D01*
X115461455Y-96658996D01*
X129181571Y-96658996D01*
X129181571Y-96659003D01*
X129201242Y-96871303D01*
X129201243Y-96871309D01*
X129259593Y-97076383D01*
X129259596Y-97076393D01*
X129354632Y-97267252D01*
X129354636Y-97267258D01*
X129399814Y-97327082D01*
X129483128Y-97437407D01*
X129640698Y-97581052D01*
X129821981Y-97693298D01*
X130020802Y-97770321D01*
X130230390Y-97809500D01*
X130443610Y-97809500D01*
X130653198Y-97770321D01*
X130852019Y-97693298D01*
X131033302Y-97581052D01*
X131190872Y-97437407D01*
X131319366Y-97267255D01*
X131414405Y-97076389D01*
X131472756Y-96871310D01*
X131492013Y-96663496D01*
X135590571Y-96663496D01*
X135590571Y-96663503D01*
X135610242Y-96875803D01*
X135610243Y-96875809D01*
X135668593Y-97080883D01*
X135668596Y-97080893D01*
X135763632Y-97271752D01*
X135763634Y-97271755D01*
X135892128Y-97441907D01*
X136049698Y-97585552D01*
X136230981Y-97697798D01*
X136429802Y-97774821D01*
X136639390Y-97814000D01*
X136852610Y-97814000D01*
X137062198Y-97774821D01*
X137261019Y-97697798D01*
X137442302Y-97585552D01*
X137599872Y-97441907D01*
X137728366Y-97271755D01*
X137823405Y-97080889D01*
X137881756Y-96875810D01*
X137901429Y-96663500D01*
X137901429Y-96663496D01*
X137881757Y-96451196D01*
X137881756Y-96451190D01*
X137823406Y-96246116D01*
X137823405Y-96246111D01*
X137821164Y-96241611D01*
X137728367Y-96055247D01*
X137728363Y-96055241D01*
X137724843Y-96050579D01*
X137599872Y-95885093D01*
X137594932Y-95880590D01*
X137558094Y-95847007D01*
X137442302Y-95741448D01*
X137261019Y-95629202D01*
X137062198Y-95552179D01*
X136970150Y-95534972D01*
X136852613Y-95513000D01*
X136852610Y-95513000D01*
X136639390Y-95513000D01*
X136639386Y-95513000D01*
X136482670Y-95542296D01*
X136429802Y-95552179D01*
X136429800Y-95552179D01*
X136429798Y-95552180D01*
X136242602Y-95624700D01*
X136230981Y-95629202D01*
X136230976Y-95629204D01*
X136230976Y-95629205D01*
X136049700Y-95741446D01*
X135892130Y-95885090D01*
X135763636Y-96055241D01*
X135763632Y-96055247D01*
X135668596Y-96246106D01*
X135668593Y-96246116D01*
X135610243Y-96451190D01*
X135610242Y-96451196D01*
X135590571Y-96663496D01*
X131492013Y-96663496D01*
X131492429Y-96659003D01*
X131492429Y-96658996D01*
X131472757Y-96446696D01*
X131472756Y-96446690D01*
X131414405Y-96241611D01*
X131319366Y-96050745D01*
X131190872Y-95880593D01*
X131033302Y-95736948D01*
X130852019Y-95624702D01*
X130653198Y-95547679D01*
X130561150Y-95530472D01*
X130443613Y-95508500D01*
X130443610Y-95508500D01*
X130230390Y-95508500D01*
X130230386Y-95508500D01*
X130073670Y-95537796D01*
X130020802Y-95547679D01*
X130020800Y-95547679D01*
X130020798Y-95547680D01*
X129821986Y-95624700D01*
X129821981Y-95624702D01*
X129821976Y-95624704D01*
X129821976Y-95624705D01*
X129640700Y-95736946D01*
X129483130Y-95880590D01*
X129354636Y-96050741D01*
X129354632Y-96050747D01*
X129259596Y-96241606D01*
X129259593Y-96241616D01*
X129201243Y-96446690D01*
X129201242Y-96446696D01*
X129181571Y-96658996D01*
X115461455Y-96658996D01*
X115468716Y-94118996D01*
X126641571Y-94118996D01*
X126641571Y-94119003D01*
X126661242Y-94331303D01*
X126661243Y-94331309D01*
X126719593Y-94536383D01*
X126719596Y-94536393D01*
X126814632Y-94727252D01*
X126814636Y-94727258D01*
X126859814Y-94787082D01*
X126943128Y-94897407D01*
X127100698Y-95041052D01*
X127281981Y-95153298D01*
X127480802Y-95230321D01*
X127690390Y-95269500D01*
X127903610Y-95269500D01*
X128113198Y-95230321D01*
X128312019Y-95153298D01*
X128493302Y-95041052D01*
X128650872Y-94897407D01*
X128779366Y-94727255D01*
X128874405Y-94536389D01*
X128932756Y-94331310D01*
X128952013Y-94123496D01*
X128952429Y-94119003D01*
X128952429Y-94118996D01*
X129181571Y-94118996D01*
X129181571Y-94119003D01*
X129201242Y-94331303D01*
X129201243Y-94331309D01*
X129259593Y-94536383D01*
X129259596Y-94536393D01*
X129354632Y-94727252D01*
X129354636Y-94727258D01*
X129399814Y-94787082D01*
X129483128Y-94897407D01*
X129640698Y-95041052D01*
X129821981Y-95153298D01*
X130020802Y-95230321D01*
X130230390Y-95269500D01*
X130443610Y-95269500D01*
X130653198Y-95230321D01*
X130852019Y-95153298D01*
X131033302Y-95041052D01*
X131190872Y-94897407D01*
X131319366Y-94727255D01*
X131414405Y-94536389D01*
X131472756Y-94331310D01*
X131492013Y-94123496D01*
X135590571Y-94123496D01*
X135590571Y-94123503D01*
X135610242Y-94335803D01*
X135610243Y-94335809D01*
X135668593Y-94540883D01*
X135668596Y-94540893D01*
X135763632Y-94731752D01*
X135763634Y-94731755D01*
X135892128Y-94901907D01*
X136049698Y-95045552D01*
X136230981Y-95157798D01*
X136429802Y-95234821D01*
X136639390Y-95274000D01*
X136852610Y-95274000D01*
X137062198Y-95234821D01*
X137261019Y-95157798D01*
X137442302Y-95045552D01*
X137599872Y-94901907D01*
X137728366Y-94731755D01*
X137823405Y-94540889D01*
X137881756Y-94335810D01*
X137901429Y-94123500D01*
X137901429Y-94123496D01*
X138130571Y-94123496D01*
X138130571Y-94123503D01*
X138150242Y-94335803D01*
X138150243Y-94335809D01*
X138208593Y-94540883D01*
X138208596Y-94540893D01*
X138303632Y-94731752D01*
X138303634Y-94731755D01*
X138432128Y-94901907D01*
X138589698Y-95045552D01*
X138770981Y-95157798D01*
X138969802Y-95234821D01*
X139179390Y-95274000D01*
X139392610Y-95274000D01*
X139602198Y-95234821D01*
X139801019Y-95157798D01*
X139982302Y-95045552D01*
X140139872Y-94901907D01*
X140268366Y-94731755D01*
X140363405Y-94540889D01*
X140421756Y-94335810D01*
X140441429Y-94123500D01*
X140441429Y-94123496D01*
X140421757Y-93911196D01*
X140421756Y-93911190D01*
X140420476Y-93906690D01*
X140363405Y-93706111D01*
X140361164Y-93701611D01*
X140268367Y-93515247D01*
X140268363Y-93515241D01*
X140198903Y-93423262D01*
X140139872Y-93345093D01*
X140134932Y-93340590D01*
X140058070Y-93270520D01*
X139982302Y-93201448D01*
X139801019Y-93089202D01*
X139602198Y-93012179D01*
X139510150Y-92994972D01*
X139392613Y-92973000D01*
X139392610Y-92973000D01*
X139179390Y-92973000D01*
X139179386Y-92973000D01*
X139022670Y-93002296D01*
X138969802Y-93012179D01*
X138969800Y-93012179D01*
X138969798Y-93012180D01*
X138782602Y-93084700D01*
X138770981Y-93089202D01*
X138770976Y-93089204D01*
X138770976Y-93089205D01*
X138589700Y-93201446D01*
X138432130Y-93345090D01*
X138303636Y-93515241D01*
X138303632Y-93515247D01*
X138208596Y-93706106D01*
X138208593Y-93706116D01*
X138150243Y-93911190D01*
X138150242Y-93911196D01*
X138130571Y-94123496D01*
X137901429Y-94123496D01*
X137881757Y-93911196D01*
X137881756Y-93911190D01*
X137880476Y-93906690D01*
X137823405Y-93706111D01*
X137821164Y-93701611D01*
X137728367Y-93515247D01*
X137728363Y-93515241D01*
X137658903Y-93423262D01*
X137599872Y-93345093D01*
X137594932Y-93340590D01*
X137518070Y-93270520D01*
X137442302Y-93201448D01*
X137261019Y-93089202D01*
X137062198Y-93012179D01*
X136970150Y-92994972D01*
X136852613Y-92973000D01*
X136852610Y-92973000D01*
X136639390Y-92973000D01*
X136639386Y-92973000D01*
X136482670Y-93002296D01*
X136429802Y-93012179D01*
X136429800Y-93012179D01*
X136429798Y-93012180D01*
X136242602Y-93084700D01*
X136230981Y-93089202D01*
X136230976Y-93089204D01*
X136230976Y-93089205D01*
X136049700Y-93201446D01*
X135892130Y-93345090D01*
X135763636Y-93515241D01*
X135763632Y-93515247D01*
X135668596Y-93706106D01*
X135668593Y-93706116D01*
X135610243Y-93911190D01*
X135610242Y-93911196D01*
X135590571Y-94123496D01*
X131492013Y-94123496D01*
X131492429Y-94119003D01*
X131492429Y-94118996D01*
X131472757Y-93906696D01*
X131472756Y-93906690D01*
X131421505Y-93726565D01*
X131414405Y-93701611D01*
X131387107Y-93646789D01*
X131319367Y-93510747D01*
X131319363Y-93510741D01*
X131253301Y-93423262D01*
X131190872Y-93340593D01*
X131033302Y-93196948D01*
X130852019Y-93084702D01*
X130653198Y-93007679D01*
X130561150Y-92990472D01*
X130443613Y-92968500D01*
X130443610Y-92968500D01*
X130230390Y-92968500D01*
X130230386Y-92968500D01*
X130073670Y-92997796D01*
X130020802Y-93007679D01*
X130020800Y-93007679D01*
X130020798Y-93007680D01*
X129821986Y-93084700D01*
X129821981Y-93084702D01*
X129821976Y-93084704D01*
X129821976Y-93084705D01*
X129640700Y-93196946D01*
X129483130Y-93340590D01*
X129354636Y-93510741D01*
X129354632Y-93510747D01*
X129259596Y-93701606D01*
X129259593Y-93701616D01*
X129201243Y-93906690D01*
X129201242Y-93906696D01*
X129181571Y-94118996D01*
X128952429Y-94118996D01*
X128932757Y-93906696D01*
X128932756Y-93906690D01*
X128881505Y-93726565D01*
X128874405Y-93701611D01*
X128847107Y-93646789D01*
X128779367Y-93510747D01*
X128779363Y-93510741D01*
X128713301Y-93423262D01*
X128650872Y-93340593D01*
X128493302Y-93196948D01*
X128312019Y-93084702D01*
X128113198Y-93007679D01*
X128021150Y-92990472D01*
X127903613Y-92968500D01*
X127903610Y-92968500D01*
X127690390Y-92968500D01*
X127690386Y-92968500D01*
X127533670Y-92997796D01*
X127480802Y-93007679D01*
X127480800Y-93007679D01*
X127480798Y-93007680D01*
X127281986Y-93084700D01*
X127281981Y-93084702D01*
X127281976Y-93084704D01*
X127281976Y-93084705D01*
X127100700Y-93196946D01*
X126943130Y-93340590D01*
X126814636Y-93510741D01*
X126814632Y-93510747D01*
X126719596Y-93701606D01*
X126719593Y-93701616D01*
X126661243Y-93906690D01*
X126661242Y-93906696D01*
X126641571Y-94118996D01*
X115468716Y-94118996D01*
X115475771Y-91651000D01*
X119385435Y-91651000D01*
X119405632Y-91830254D01*
X119405634Y-91830263D01*
X119465209Y-92000520D01*
X119536547Y-92114054D01*
X119561184Y-92153262D01*
X119688738Y-92280816D01*
X119705239Y-92291184D01*
X119841479Y-92376790D01*
X120011736Y-92436365D01*
X120011745Y-92436368D01*
X120191000Y-92456565D01*
X120370255Y-92436368D01*
X120438481Y-92412494D01*
X120540520Y-92376790D01*
X120564203Y-92361909D01*
X120693262Y-92280816D01*
X120773676Y-92200401D01*
X120825999Y-92178729D01*
X120878325Y-92200403D01*
X120911596Y-92233674D01*
X120933270Y-92286000D01*
X120911596Y-92338326D01*
X120831183Y-92418739D01*
X120735209Y-92571479D01*
X120675634Y-92741736D01*
X120675632Y-92741745D01*
X120655435Y-92921000D01*
X120674386Y-93089200D01*
X120675632Y-93100254D01*
X120675634Y-93100263D01*
X120735209Y-93270520D01*
X120782065Y-93345090D01*
X120831184Y-93423262D01*
X120958738Y-93550816D01*
X121054712Y-93611120D01*
X121111479Y-93646790D01*
X121281736Y-93706365D01*
X121281745Y-93706368D01*
X121461000Y-93726565D01*
X121640255Y-93706368D01*
X121708481Y-93682494D01*
X121810520Y-93646790D01*
X121810522Y-93646789D01*
X121963262Y-93550816D01*
X122090816Y-93423262D01*
X122186789Y-93270522D01*
X122246368Y-93100255D01*
X122266565Y-92921000D01*
X122246368Y-92741745D01*
X122228374Y-92690321D01*
X122186790Y-92571479D01*
X122151120Y-92514712D01*
X122090816Y-92418738D01*
X122010402Y-92338324D01*
X121988729Y-92286000D01*
X122010402Y-92233675D01*
X122090816Y-92153262D01*
X122186789Y-92000522D01*
X122188238Y-91996383D01*
X122246365Y-91830263D01*
X122246368Y-91830255D01*
X122266565Y-91651000D01*
X122258452Y-91578996D01*
X129181571Y-91578996D01*
X129181571Y-91579003D01*
X129201242Y-91791303D01*
X129201243Y-91791309D01*
X129259593Y-91996383D01*
X129259596Y-91996393D01*
X129354632Y-92187252D01*
X129354636Y-92187258D01*
X129364563Y-92200403D01*
X129483128Y-92357407D01*
X129640698Y-92501052D01*
X129821981Y-92613298D01*
X130020802Y-92690321D01*
X130230390Y-92729500D01*
X130443610Y-92729500D01*
X130653198Y-92690321D01*
X130852019Y-92613298D01*
X131033302Y-92501052D01*
X131190872Y-92357407D01*
X131319366Y-92187255D01*
X131414405Y-91996389D01*
X131472756Y-91791310D01*
X131485758Y-91651000D01*
X131492013Y-91583496D01*
X135590571Y-91583496D01*
X135590571Y-91583503D01*
X135610242Y-91795803D01*
X135610243Y-91795809D01*
X135668593Y-92000883D01*
X135668596Y-92000893D01*
X135763632Y-92191752D01*
X135763636Y-92191758D01*
X135795290Y-92233674D01*
X135892128Y-92361907D01*
X136049698Y-92505552D01*
X136230981Y-92617798D01*
X136429802Y-92694821D01*
X136639390Y-92734000D01*
X136852610Y-92734000D01*
X137062198Y-92694821D01*
X137261019Y-92617798D01*
X137442302Y-92505552D01*
X137599872Y-92361907D01*
X137728366Y-92191755D01*
X137823405Y-92000889D01*
X137881756Y-91795810D01*
X137895175Y-91651000D01*
X137901429Y-91583503D01*
X137901429Y-91583496D01*
X138130571Y-91583496D01*
X138130571Y-91583503D01*
X138150242Y-91795803D01*
X138150243Y-91795809D01*
X138208593Y-92000883D01*
X138208596Y-92000893D01*
X138303632Y-92191752D01*
X138303636Y-92191758D01*
X138335290Y-92233674D01*
X138432128Y-92361907D01*
X138589698Y-92505552D01*
X138770981Y-92617798D01*
X138969802Y-92694821D01*
X139179390Y-92734000D01*
X139392610Y-92734000D01*
X139602198Y-92694821D01*
X139801019Y-92617798D01*
X139982302Y-92505552D01*
X140139872Y-92361907D01*
X140268366Y-92191755D01*
X140363405Y-92000889D01*
X140421756Y-91795810D01*
X140435175Y-91651000D01*
X140441429Y-91583503D01*
X140441429Y-91583496D01*
X140421757Y-91371196D01*
X140421756Y-91371190D01*
X140363406Y-91166116D01*
X140363405Y-91166111D01*
X140361164Y-91161611D01*
X140268367Y-90975247D01*
X140268363Y-90975241D01*
X140198903Y-90883262D01*
X140139872Y-90805093D01*
X140134932Y-90800590D01*
X140058070Y-90730520D01*
X139982302Y-90661448D01*
X139801019Y-90549202D01*
X139602198Y-90472179D01*
X139510150Y-90454972D01*
X139392613Y-90433000D01*
X139392610Y-90433000D01*
X139179390Y-90433000D01*
X139179386Y-90433000D01*
X139022670Y-90462296D01*
X138969802Y-90472179D01*
X138969800Y-90472179D01*
X138969798Y-90472180D01*
X138782602Y-90544700D01*
X138770981Y-90549202D01*
X138770976Y-90549204D01*
X138770976Y-90549205D01*
X138589700Y-90661446D01*
X138432130Y-90805090D01*
X138303636Y-90975241D01*
X138303632Y-90975247D01*
X138208596Y-91166106D01*
X138208593Y-91166116D01*
X138150243Y-91371190D01*
X138150242Y-91371196D01*
X138130571Y-91583496D01*
X137901429Y-91583496D01*
X137881757Y-91371196D01*
X137881756Y-91371190D01*
X137823406Y-91166116D01*
X137823405Y-91166111D01*
X137821164Y-91161611D01*
X137728367Y-90975247D01*
X137728363Y-90975241D01*
X137658903Y-90883262D01*
X137599872Y-90805093D01*
X137594932Y-90800590D01*
X137518070Y-90730520D01*
X137442302Y-90661448D01*
X137261019Y-90549202D01*
X137062198Y-90472179D01*
X136970150Y-90454972D01*
X136852613Y-90433000D01*
X136852610Y-90433000D01*
X136639390Y-90433000D01*
X136639386Y-90433000D01*
X136482670Y-90462296D01*
X136429802Y-90472179D01*
X136429800Y-90472179D01*
X136429798Y-90472180D01*
X136242602Y-90544700D01*
X136230981Y-90549202D01*
X136230976Y-90549204D01*
X136230976Y-90549205D01*
X136049700Y-90661446D01*
X135892130Y-90805090D01*
X135763636Y-90975241D01*
X135763632Y-90975247D01*
X135668596Y-91166106D01*
X135668593Y-91166116D01*
X135610243Y-91371190D01*
X135610242Y-91371196D01*
X135590571Y-91583496D01*
X131492013Y-91583496D01*
X131492429Y-91579003D01*
X131492429Y-91578996D01*
X131472757Y-91366696D01*
X131472756Y-91366690D01*
X131414405Y-91161611D01*
X131412103Y-91156988D01*
X131319367Y-90970747D01*
X131319363Y-90970741D01*
X131253301Y-90883262D01*
X131190872Y-90800593D01*
X131033302Y-90656948D01*
X130852019Y-90544702D01*
X130653198Y-90467679D01*
X130561150Y-90450472D01*
X130443613Y-90428500D01*
X130443610Y-90428500D01*
X130230390Y-90428500D01*
X130230386Y-90428500D01*
X130073670Y-90457796D01*
X130020802Y-90467679D01*
X130020800Y-90467679D01*
X130020798Y-90467680D01*
X129821986Y-90544700D01*
X129821981Y-90544702D01*
X129821976Y-90544704D01*
X129821976Y-90544705D01*
X129640700Y-90656946D01*
X129483130Y-90800590D01*
X129354636Y-90970741D01*
X129354632Y-90970747D01*
X129259596Y-91161606D01*
X129259593Y-91161616D01*
X129201243Y-91366690D01*
X129201242Y-91366696D01*
X129181571Y-91578996D01*
X122258452Y-91578996D01*
X122246368Y-91471745D01*
X122246365Y-91471736D01*
X122186790Y-91301479D01*
X122101729Y-91166106D01*
X122090816Y-91148738D01*
X122010402Y-91068324D01*
X121988729Y-91016000D01*
X122010402Y-90963675D01*
X122090816Y-90883262D01*
X122186789Y-90730522D01*
X122246368Y-90560255D01*
X122266565Y-90381000D01*
X122246368Y-90201745D01*
X122228374Y-90150321D01*
X122186790Y-90031479D01*
X122151120Y-89974712D01*
X122090816Y-89878738D01*
X122010402Y-89798324D01*
X121988729Y-89746000D01*
X122010402Y-89693675D01*
X122090816Y-89613262D01*
X122186789Y-89460522D01*
X122188238Y-89456383D01*
X122246365Y-89290263D01*
X122246368Y-89290255D01*
X122266565Y-89111000D01*
X122258452Y-89038996D01*
X129181571Y-89038996D01*
X129181571Y-89039003D01*
X129201242Y-89251303D01*
X129201243Y-89251309D01*
X129259593Y-89456383D01*
X129259596Y-89456393D01*
X129354632Y-89647252D01*
X129354636Y-89647258D01*
X129389688Y-89693674D01*
X129483128Y-89817407D01*
X129640698Y-89961052D01*
X129821981Y-90073298D01*
X130020802Y-90150321D01*
X130230390Y-90189500D01*
X130443610Y-90189500D01*
X130653198Y-90150321D01*
X130852019Y-90073298D01*
X131033302Y-89961052D01*
X131190872Y-89817407D01*
X131319366Y-89647255D01*
X131414405Y-89456389D01*
X131472756Y-89251310D01*
X131485758Y-89111000D01*
X131492013Y-89043496D01*
X135590571Y-89043496D01*
X135590571Y-89043503D01*
X135610242Y-89255803D01*
X135610243Y-89255809D01*
X135668593Y-89460883D01*
X135668596Y-89460893D01*
X135763632Y-89651752D01*
X135763634Y-89651755D01*
X135892128Y-89821907D01*
X136049698Y-89965552D01*
X136230981Y-90077798D01*
X136429802Y-90154821D01*
X136639390Y-90194000D01*
X136852610Y-90194000D01*
X137062198Y-90154821D01*
X137261019Y-90077798D01*
X137442302Y-89965552D01*
X137599872Y-89821907D01*
X137728366Y-89651755D01*
X137823405Y-89460889D01*
X137881756Y-89255810D01*
X137895175Y-89111000D01*
X137901429Y-89043503D01*
X137901429Y-89043496D01*
X138130571Y-89043496D01*
X138130571Y-89043503D01*
X138150242Y-89255803D01*
X138150243Y-89255809D01*
X138208593Y-89460883D01*
X138208596Y-89460893D01*
X138303632Y-89651752D01*
X138303634Y-89651755D01*
X138432128Y-89821907D01*
X138589698Y-89965552D01*
X138770981Y-90077798D01*
X138969802Y-90154821D01*
X139179390Y-90194000D01*
X139392610Y-90194000D01*
X139602198Y-90154821D01*
X139801019Y-90077798D01*
X139982302Y-89965552D01*
X140139872Y-89821907D01*
X140268366Y-89651755D01*
X140363405Y-89460889D01*
X140421756Y-89255810D01*
X140435175Y-89111000D01*
X140441429Y-89043503D01*
X140441429Y-89043496D01*
X140421757Y-88831196D01*
X140421756Y-88831190D01*
X140400040Y-88754868D01*
X140363405Y-88626111D01*
X140361164Y-88621611D01*
X140268367Y-88435247D01*
X140268363Y-88435241D01*
X140198903Y-88343262D01*
X140139872Y-88265093D01*
X140134932Y-88260590D01*
X140058070Y-88190520D01*
X139982302Y-88121448D01*
X139801019Y-88009202D01*
X139602198Y-87932179D01*
X139510150Y-87914972D01*
X139392613Y-87893000D01*
X139392610Y-87893000D01*
X139179390Y-87893000D01*
X139179386Y-87893000D01*
X139022670Y-87922296D01*
X138969802Y-87932179D01*
X138969800Y-87932179D01*
X138969798Y-87932180D01*
X138782602Y-88004700D01*
X138770981Y-88009202D01*
X138770976Y-88009204D01*
X138770976Y-88009205D01*
X138589700Y-88121446D01*
X138432130Y-88265090D01*
X138303636Y-88435241D01*
X138303632Y-88435247D01*
X138208596Y-88626106D01*
X138208593Y-88626116D01*
X138150243Y-88831190D01*
X138150242Y-88831196D01*
X138130571Y-89043496D01*
X137901429Y-89043496D01*
X137881757Y-88831196D01*
X137881756Y-88831190D01*
X137860040Y-88754868D01*
X137823405Y-88626111D01*
X137821164Y-88621611D01*
X137728367Y-88435247D01*
X137728363Y-88435241D01*
X137658903Y-88343262D01*
X137599872Y-88265093D01*
X137594932Y-88260590D01*
X137518070Y-88190520D01*
X137442302Y-88121448D01*
X137261019Y-88009202D01*
X137062198Y-87932179D01*
X136970150Y-87914972D01*
X136852613Y-87893000D01*
X136852610Y-87893000D01*
X136639390Y-87893000D01*
X136639386Y-87893000D01*
X136482670Y-87922296D01*
X136429802Y-87932179D01*
X136429800Y-87932179D01*
X136429798Y-87932180D01*
X136242602Y-88004700D01*
X136230981Y-88009202D01*
X136230976Y-88009204D01*
X136230976Y-88009205D01*
X136049700Y-88121446D01*
X135892130Y-88265090D01*
X135763636Y-88435241D01*
X135763632Y-88435247D01*
X135668596Y-88626106D01*
X135668593Y-88626116D01*
X135610243Y-88831190D01*
X135610242Y-88831196D01*
X135590571Y-89043496D01*
X131492013Y-89043496D01*
X131492429Y-89039003D01*
X131492429Y-89038996D01*
X131472757Y-88826696D01*
X131472756Y-88826690D01*
X131414405Y-88621611D01*
X131407995Y-88608738D01*
X131319367Y-88430747D01*
X131319363Y-88430741D01*
X131304448Y-88410991D01*
X131190872Y-88260593D01*
X131033302Y-88116948D01*
X130852019Y-88004702D01*
X130653198Y-87927679D01*
X130561150Y-87910472D01*
X130443613Y-87888500D01*
X130443610Y-87888500D01*
X130230390Y-87888500D01*
X130230386Y-87888500D01*
X130073670Y-87917796D01*
X130020802Y-87927679D01*
X130020800Y-87927679D01*
X130020798Y-87927680D01*
X129821986Y-88004700D01*
X129821981Y-88004702D01*
X129821976Y-88004704D01*
X129821976Y-88004705D01*
X129640700Y-88116946D01*
X129483130Y-88260590D01*
X129354636Y-88430741D01*
X129354632Y-88430747D01*
X129259596Y-88621606D01*
X129259593Y-88621616D01*
X129201243Y-88826690D01*
X129201242Y-88826696D01*
X129181571Y-89038996D01*
X122258452Y-89038996D01*
X122246368Y-88931745D01*
X122246365Y-88931736D01*
X122186790Y-88761479D01*
X122125020Y-88663173D01*
X122090816Y-88608738D01*
X122010402Y-88528324D01*
X121988729Y-88476000D01*
X122010402Y-88423675D01*
X122090816Y-88343262D01*
X122186789Y-88190522D01*
X122246368Y-88020255D01*
X122266565Y-87841000D01*
X122246368Y-87661745D01*
X122228374Y-87610321D01*
X122186790Y-87491479D01*
X122151120Y-87434712D01*
X122090816Y-87338738D01*
X121963262Y-87211184D01*
X121880013Y-87158875D01*
X121810520Y-87115209D01*
X121640263Y-87055634D01*
X121640256Y-87055632D01*
X121640255Y-87055632D01*
X121461000Y-87035435D01*
X121281745Y-87055632D01*
X121281736Y-87055634D01*
X121111480Y-87115209D01*
X121111478Y-87115210D01*
X121025542Y-87169207D01*
X120969705Y-87178693D01*
X120933846Y-87158875D01*
X120863765Y-87088794D01*
X120788664Y-87055634D01*
X120760991Y-87043415D01*
X120760990Y-87043414D01*
X120760988Y-87043414D01*
X120739659Y-87040940D01*
X120735865Y-87040500D01*
X120735864Y-87040500D01*
X119646136Y-87040500D01*
X119621013Y-87043414D01*
X119621007Y-87043415D01*
X119518234Y-87088794D01*
X119438794Y-87168234D01*
X119393414Y-87271011D01*
X119390500Y-87296135D01*
X119390500Y-88385863D01*
X119393414Y-88410986D01*
X119393415Y-88410992D01*
X119422119Y-88476000D01*
X119438794Y-88513765D01*
X119518235Y-88593206D01*
X119621009Y-88638585D01*
X119646135Y-88641500D01*
X120676705Y-88641499D01*
X120729031Y-88663173D01*
X120750705Y-88715499D01*
X120739363Y-88754868D01*
X120735211Y-88761474D01*
X120735211Y-88761475D01*
X120675634Y-88931736D01*
X120675632Y-88931745D01*
X120655435Y-89111000D01*
X120675632Y-89290254D01*
X120675634Y-89290263D01*
X120735209Y-89460520D01*
X120806547Y-89574054D01*
X120831184Y-89613262D01*
X120911596Y-89693674D01*
X120933270Y-89746000D01*
X120911596Y-89798326D01*
X120831183Y-89878739D01*
X120735209Y-90031479D01*
X120675634Y-90201736D01*
X120675632Y-90201745D01*
X120655435Y-90381000D01*
X120674386Y-90549200D01*
X120675632Y-90560254D01*
X120675634Y-90560263D01*
X120735209Y-90730520D01*
X120782065Y-90805090D01*
X120831184Y-90883262D01*
X120911596Y-90963674D01*
X120933270Y-91015999D01*
X120911596Y-91068325D01*
X120878325Y-91101596D01*
X120825999Y-91123270D01*
X120773674Y-91101596D01*
X120693262Y-91021184D01*
X120620151Y-90975245D01*
X120540520Y-90925209D01*
X120370263Y-90865634D01*
X120370256Y-90865632D01*
X120370255Y-90865632D01*
X120191000Y-90845435D01*
X120011745Y-90865632D01*
X120011736Y-90865634D01*
X119841479Y-90925209D01*
X119688739Y-91021183D01*
X119561183Y-91148739D01*
X119465209Y-91301479D01*
X119405634Y-91471736D01*
X119405632Y-91471745D01*
X119385435Y-91651000D01*
X115475771Y-91651000D01*
X115493057Y-85604135D01*
X126646500Y-85604135D01*
X126646500Y-87393863D01*
X126649414Y-87418986D01*
X126649415Y-87418992D01*
X126651402Y-87423491D01*
X126694794Y-87521765D01*
X126774235Y-87601206D01*
X126877009Y-87646585D01*
X126902135Y-87649500D01*
X128691864Y-87649499D01*
X128716991Y-87646585D01*
X128819765Y-87601206D01*
X128899206Y-87521765D01*
X128944585Y-87418991D01*
X128947500Y-87393865D01*
X128947499Y-86498996D01*
X129181571Y-86498996D01*
X129181571Y-86499003D01*
X129201242Y-86711303D01*
X129201243Y-86711309D01*
X129259593Y-86916383D01*
X129259596Y-86916393D01*
X129354632Y-87107252D01*
X129354636Y-87107258D01*
X129360641Y-87115210D01*
X129483128Y-87277407D01*
X129640698Y-87421052D01*
X129821981Y-87533298D01*
X130020802Y-87610321D01*
X130230390Y-87649500D01*
X130443610Y-87649500D01*
X130653198Y-87610321D01*
X130852019Y-87533298D01*
X131033302Y-87421052D01*
X131190872Y-87277407D01*
X131319366Y-87107255D01*
X131414405Y-86916389D01*
X131472756Y-86711310D01*
X131492429Y-86499000D01*
X131472756Y-86286690D01*
X131414405Y-86081611D01*
X131319366Y-85890745D01*
X131190872Y-85720593D01*
X131068061Y-85608635D01*
X135595500Y-85608635D01*
X135595500Y-87398363D01*
X135598414Y-87423486D01*
X135598415Y-87423492D01*
X135641807Y-87521765D01*
X135643794Y-87526265D01*
X135723235Y-87605706D01*
X135826009Y-87651085D01*
X135851135Y-87654000D01*
X137640864Y-87653999D01*
X137665991Y-87651085D01*
X137768765Y-87605706D01*
X137848206Y-87526265D01*
X137893585Y-87423491D01*
X137896500Y-87398365D01*
X137896499Y-85608636D01*
X137893585Y-85583509D01*
X137848206Y-85480735D01*
X137768765Y-85401294D01*
X137665991Y-85355915D01*
X137665990Y-85355914D01*
X137665988Y-85355914D01*
X137644659Y-85353440D01*
X137640865Y-85353000D01*
X137640864Y-85353000D01*
X135851136Y-85353000D01*
X135826013Y-85355914D01*
X135826007Y-85355915D01*
X135723234Y-85401294D01*
X135643794Y-85480734D01*
X135598414Y-85583511D01*
X135595500Y-85608635D01*
X131068061Y-85608635D01*
X131033302Y-85576948D01*
X130852019Y-85464702D01*
X130653198Y-85387679D01*
X130561150Y-85370472D01*
X130443613Y-85348500D01*
X130443610Y-85348500D01*
X130230390Y-85348500D01*
X130230386Y-85348500D01*
X130073670Y-85377796D01*
X130020802Y-85387679D01*
X130020800Y-85387679D01*
X130020798Y-85387680D01*
X129821986Y-85464700D01*
X129821981Y-85464702D01*
X129821976Y-85464704D01*
X129821976Y-85464705D01*
X129640700Y-85576946D01*
X129483130Y-85720590D01*
X129354636Y-85890741D01*
X129354632Y-85890747D01*
X129259596Y-86081606D01*
X129259593Y-86081616D01*
X129201243Y-86286690D01*
X129201242Y-86286696D01*
X129181571Y-86498996D01*
X128947499Y-86498996D01*
X128947499Y-85604136D01*
X128944585Y-85579009D01*
X128899206Y-85476235D01*
X128819765Y-85396794D01*
X128716991Y-85351415D01*
X128716990Y-85351414D01*
X128716988Y-85351414D01*
X128695659Y-85348940D01*
X128691865Y-85348500D01*
X128691864Y-85348500D01*
X126902136Y-85348500D01*
X126877013Y-85351414D01*
X126877007Y-85351415D01*
X126774234Y-85396794D01*
X126694794Y-85476234D01*
X126649414Y-85579011D01*
X126646500Y-85604135D01*
X115493057Y-85604135D01*
X115500295Y-83072085D01*
X115500500Y-83069042D01*
X115500500Y-83002624D01*
X115500689Y-82997345D01*
X115515385Y-82791882D01*
X115516887Y-82781432D01*
X115516994Y-82780937D01*
X115560118Y-82582699D01*
X115563084Y-82572596D01*
X115634163Y-82382028D01*
X115638538Y-82372449D01*
X115736004Y-82193953D01*
X115741705Y-82185080D01*
X115863589Y-82022263D01*
X115870489Y-82014300D01*
X116014300Y-81870489D01*
X116022263Y-81863589D01*
X116185080Y-81741705D01*
X116193953Y-81736004D01*
X116372449Y-81638538D01*
X116382028Y-81634163D01*
X116572596Y-81563084D01*
X116582699Y-81560118D01*
X116781432Y-81516887D01*
X116791879Y-81515385D01*
X116997357Y-81500688D01*
X117002636Y-81500500D01*
X117065892Y-81500500D01*
X142934108Y-81500500D01*
X142997364Y-81500500D01*
X143002642Y-81500688D01*
G37*
%TD.AperFunction*%
%TD*%
M02*
