%TF.GenerationSoftware,KiCad,Pcbnew,8.0.3*%
%TF.CreationDate,2024-06-16T20:35:08-04:00*%
%TF.ProjectId,JTAGAdapter,4a544147-4164-4617-9074-65722e6b6963,rev?*%
%TF.SameCoordinates,Original*%
%TF.FileFunction,Copper,L1,Top*%
%TF.FilePolarity,Positive*%
%FSLAX46Y46*%
G04 Gerber Fmt 4.6, Leading zero omitted, Abs format (unit mm)*
G04 Created by KiCad (PCBNEW 8.0.3) date 2024-06-16 20:35:08*
%MOMM*%
%LPD*%
G01*
G04 APERTURE LIST*
%TA.AperFunction,ComponentPad*%
%ADD10O,1.000000X1.000000*%
%TD*%
%TA.AperFunction,ComponentPad*%
%ADD11R,1.000000X1.000000*%
%TD*%
%TA.AperFunction,ComponentPad*%
%ADD12R,1.700000X1.700000*%
%TD*%
%TA.AperFunction,ComponentPad*%
%ADD13O,1.700000X1.700000*%
%TD*%
%TA.AperFunction,Conductor*%
%ADD14C,0.500000*%
%TD*%
%TA.AperFunction,Conductor*%
%ADD15C,0.200000*%
%TD*%
G04 APERTURE END LIST*
D10*
%TO.P,J3,10,~{RESET}*%
%TO.N,Net-(J1-~{RESET})*%
X121461000Y-92921000D03*
%TO.P,J3,9,GNDDetect*%
%TO.N,GND*%
X120191000Y-92921000D03*
%TO.P,J3,8,NC/TDI*%
%TO.N,Net-(J1-NC{slash}TDI)*%
X121461000Y-91651000D03*
%TO.P,J3,7,KEY*%
%TO.N,unconnected-(J3-KEY-Pad7)*%
X120191000Y-91651000D03*
%TO.P,J3,6,SWO/TDO*%
%TO.N,Net-(J1-SWO{slash}TDO)*%
X121461000Y-90381000D03*
%TO.P,J3,5,GND*%
%TO.N,GND*%
X120191000Y-90381000D03*
%TO.P,J3,4,SWCLK/TCK*%
%TO.N,Net-(J1-SWCLK{slash}TCK)*%
X121461000Y-89111000D03*
%TO.P,J3,3,GND*%
%TO.N,GND*%
X120191000Y-89111000D03*
%TO.P,J3,2,SWDIO/TMS*%
%TO.N,Net-(J1-SWDIO{slash}TMS)*%
X121461000Y-87841000D03*
D11*
%TO.P,J3,1,VTref*%
%TO.N,+3V3*%
X120191000Y-87841000D03*
%TD*%
D12*
%TO.P,J2,1,TCK*%
%TO.N,Net-(J1-SWCLK{slash}TCK)*%
X136746000Y-86503500D03*
D13*
%TO.P,J2,2,GND*%
%TO.N,GND*%
X139286000Y-86503500D03*
%TO.P,J2,3,TDO*%
%TO.N,Net-(J1-SWO{slash}TDO)*%
X136746000Y-89043500D03*
%TO.P,J2,4,PGM/NC*%
%TO.N,unconnected-(J2-PGM{slash}NC-Pad4)*%
X139286000Y-89043500D03*
%TO.P,J2,5,TMS*%
%TO.N,Net-(J1-SWDIO{slash}TMS)*%
X136746000Y-91583500D03*
%TO.P,J2,6,VJTAG*%
%TO.N,+3V3*%
X139286000Y-91583500D03*
%TO.P,J2,7,VPUMP*%
%TO.N,unconnected-(J2-VPUMP-Pad7)*%
X136746000Y-94123500D03*
%TO.P,J2,8,~{TRST}*%
%TO.N,Net-(J1-~{RESET})*%
X139286000Y-94123500D03*
%TO.P,J2,9,TDI*%
%TO.N,Net-(J1-NC{slash}TDI)*%
X136746000Y-96663500D03*
%TO.P,J2,10,GND*%
%TO.N,GND*%
X139286000Y-96663500D03*
%TD*%
D12*
%TO.P,J1,1,VTref*%
%TO.N,+3V3*%
X127797000Y-86499000D03*
D13*
%TO.P,J1,2,SWDIO/TMS*%
%TO.N,Net-(J1-SWDIO{slash}TMS)*%
X130337000Y-86499000D03*
%TO.P,J1,3,GND*%
%TO.N,GND*%
X127797000Y-89039000D03*
%TO.P,J1,4,SWCLK/TCK*%
%TO.N,Net-(J1-SWCLK{slash}TCK)*%
X130337000Y-89039000D03*
%TO.P,J1,5,GND*%
%TO.N,GND*%
X127797000Y-91579000D03*
%TO.P,J1,6,SWO/TDO*%
%TO.N,Net-(J1-SWO{slash}TDO)*%
X130337000Y-91579000D03*
%TO.P,J1,7,KEY*%
%TO.N,unconnected-(J1-KEY-Pad7)*%
X127797000Y-94119000D03*
%TO.P,J1,8,NC/TDI*%
%TO.N,Net-(J1-NC{slash}TDI)*%
X130337000Y-94119000D03*
%TO.P,J1,9,GNDDetect*%
%TO.N,GND*%
X127797000Y-96659000D03*
%TO.P,J1,10,~{RESET}*%
%TO.N,Net-(J1-~{RESET})*%
X130337000Y-96659000D03*
%TD*%
D14*
%TO.N,+3V3*%
X129825000Y-84471000D02*
X139589500Y-84471000D01*
X120759000Y-86499000D02*
X120191000Y-87067000D01*
X120191000Y-87067000D02*
X120191000Y-87841000D01*
X120759000Y-86499000D02*
X127797000Y-86499000D01*
D15*
%TO.N,Net-(J1-SWDIO{slash}TMS)*%
X122283000Y-87879000D02*
X122261000Y-87901000D01*
X128957000Y-87879000D02*
X122283000Y-87879000D01*
X122261000Y-87901000D02*
X122201000Y-87841000D01*
X122201000Y-87841000D02*
X121461000Y-87841000D01*
%TO.N,Net-(J1-SWCLK{slash}TCK)*%
X129045000Y-90331000D02*
X122681000Y-90331000D01*
X122681000Y-90331000D02*
X121461000Y-89111000D01*
%TO.N,Net-(J1-SWO{slash}TDO)*%
X129095000Y-92821000D02*
X123901000Y-92821000D01*
X123901000Y-92821000D02*
X121461000Y-90381000D01*
%TO.N,Net-(J1-NC{slash}TDI)*%
X129005000Y-95451000D02*
X125261000Y-95451000D01*
X125261000Y-95451000D02*
X121461000Y-91651000D01*
%TO.N,Net-(J1-~{RESET})*%
X130337000Y-96659000D02*
X129065000Y-97931000D01*
X129065000Y-97931000D02*
X126471000Y-97931000D01*
X126471000Y-97931000D02*
X121461000Y-92921000D01*
X137379500Y-97981000D02*
X131659000Y-97981000D01*
%TO.N,Net-(J1-NC{slash}TDI)*%
X134200000Y-94117500D02*
X134198500Y-94119000D01*
X134198500Y-94119000D02*
X130337000Y-94119000D01*
%TO.N,Net-(J1-SWDIO{slash}TMS)*%
X131645000Y-85191000D02*
X137759500Y-85191000D01*
X137759500Y-85191000D02*
X137761000Y-85189500D01*
%TO.N,Net-(J1-SWCLK{slash}TCK)*%
X134210500Y-89039000D02*
X130337000Y-89039000D01*
%TO.N,Net-(J1-SWO{slash}TDO)*%
X134210500Y-91579000D02*
X130337000Y-91579000D01*
%TO.N,Net-(J1-SWDIO{slash}TMS)*%
X128957000Y-87879000D02*
X130337000Y-86499000D01*
D14*
%TO.N,+3V3*%
X139589500Y-84471000D02*
X139591000Y-84469500D01*
X139591000Y-84469500D02*
X140891000Y-85769500D01*
X127797000Y-86499000D02*
X129825000Y-84471000D01*
X140891000Y-85769500D02*
X140891000Y-89978500D01*
X140891000Y-89978500D02*
X139286000Y-91583500D01*
D15*
%TO.N,Net-(J1-SWDIO{slash}TMS)*%
X130337000Y-86499000D02*
X131645000Y-85191000D01*
X137761000Y-85189500D02*
X138011000Y-85439500D01*
X138011000Y-85439500D02*
X138011000Y-90318500D01*
X138011000Y-90318500D02*
X136746000Y-91583500D01*
%TO.N,Net-(J1-~{RESET})*%
X130337000Y-96659000D02*
X131659000Y-97981000D01*
X137379500Y-97981000D02*
X138051000Y-97309500D01*
X138051000Y-97309500D02*
X138051000Y-95358500D01*
X138051000Y-95358500D02*
X139286000Y-94123500D01*
%TO.N,Net-(J1-NC{slash}TDI)*%
X134200000Y-94117500D02*
X135956000Y-95873500D01*
X135956000Y-95873500D02*
X136746000Y-96663500D01*
X134201500Y-94119000D02*
X135956000Y-95873500D01*
%TO.N,Net-(J1-SWO{slash}TDO)*%
X134210500Y-91579000D02*
X136746000Y-89043500D01*
%TO.N,Net-(J1-SWCLK{slash}TCK)*%
X134210500Y-89039000D02*
X136746000Y-86503500D01*
%TO.N,Net-(J1-NC{slash}TDI)*%
X130337000Y-94119000D02*
X129005000Y-95451000D01*
%TO.N,Net-(J1-SWO{slash}TDO)*%
X129095000Y-92821000D02*
X130337000Y-91579000D01*
%TO.N,Net-(J1-SWCLK{slash}TCK)*%
X129045000Y-90331000D02*
X130337000Y-89039000D01*
%TD*%
M02*
