M48
; DRILL file {KiCad 8.0.3} date 2024-06-16T20:35:02-0400
; FORMAT={-:-/ absolute / metric / decimal}
; #@! TF.CreationDate,2024-06-16T20:35:02-04:00
; #@! TF.GenerationSoftware,Kicad,Pcbnew,8.0.3
; #@! TF.FileFunction,Plated,1,2,PTH
FMAT,2
METRIC
; #@! TA.AperFunction,Plated,PTH,ComponentDrill
T1C0.650
; #@! TA.AperFunction,Plated,PTH,ComponentDrill
T2C1.000
%
G90
G05
T1
X120.191Y-87.841
X120.191Y-89.111
X120.191Y-90.381
X120.191Y-91.651
X120.191Y-92.921
X121.461Y-87.841
X121.461Y-89.111
X121.461Y-90.381
X121.461Y-91.651
X121.461Y-92.921
T2
X127.797Y-86.499
X127.797Y-89.039
X127.797Y-91.579
X127.797Y-94.119
X127.797Y-96.659
X130.337Y-86.499
X130.337Y-89.039
X130.337Y-91.579
X130.337Y-94.119
X130.337Y-96.659
X136.746Y-86.504
X136.746Y-89.043
X136.746Y-91.584
X136.746Y-94.123
X136.746Y-96.663
X139.286Y-86.504
X139.286Y-89.043
X139.286Y-91.584
X139.286Y-94.123
X139.286Y-96.663
M30
