%TF.GenerationSoftware,KiCad,Pcbnew,8.0.3*%
%TF.CreationDate,2024-06-16T20:35:08-04:00*%
%TF.ProjectId,JTAGAdapter,4a544147-4164-4617-9074-65722e6b6963,rev?*%
%TF.SameCoordinates,Original*%
%TF.FileFunction,Legend,Top*%
%TF.FilePolarity,Positive*%
%FSLAX46Y46*%
G04 Gerber Fmt 4.6, Leading zero omitted, Abs format (unit mm)*
G04 Created by KiCad (PCBNEW 8.0.3) date 2024-06-16 20:35:08*
%MOMM*%
%LPD*%
G01*
G04 APERTURE LIST*
%ADD10C,0.100000*%
%ADD11C,0.150000*%
%ADD12C,0.120000*%
G04 APERTURE END LIST*
D10*
X134600000Y-91400000D02*
X135400000Y-96600000D01*
X132900000Y-91400000D02*
X134600000Y-91400000D01*
X132700000Y-91700000D02*
X131700000Y-86600000D01*
X134300000Y-91700000D02*
X132700000Y-91700000D01*
X123500000Y-91000000D02*
X122600000Y-93000000D01*
X125000000Y-91000000D02*
X123500000Y-91000000D01*
X125200000Y-91500000D02*
X126400000Y-87000000D01*
X123700000Y-91500000D02*
X125200000Y-91500000D01*
D11*
X138457142Y-83231009D02*
X138123809Y-83231009D01*
X138123809Y-83754819D02*
X138123809Y-82754819D01*
X138123809Y-82754819D02*
X138599999Y-82754819D01*
X139123809Y-83754819D02*
X139028571Y-83707200D01*
X139028571Y-83707200D02*
X138980952Y-83611961D01*
X138980952Y-83611961D02*
X138980952Y-82754819D01*
X139933333Y-83754819D02*
X139933333Y-83231009D01*
X139933333Y-83231009D02*
X139885714Y-83135771D01*
X139885714Y-83135771D02*
X139790476Y-83088152D01*
X139790476Y-83088152D02*
X139600000Y-83088152D01*
X139600000Y-83088152D02*
X139504762Y-83135771D01*
X139933333Y-83707200D02*
X139838095Y-83754819D01*
X139838095Y-83754819D02*
X139600000Y-83754819D01*
X139600000Y-83754819D02*
X139504762Y-83707200D01*
X139504762Y-83707200D02*
X139457143Y-83611961D01*
X139457143Y-83611961D02*
X139457143Y-83516723D01*
X139457143Y-83516723D02*
X139504762Y-83421485D01*
X139504762Y-83421485D02*
X139600000Y-83373866D01*
X139600000Y-83373866D02*
X139838095Y-83373866D01*
X139838095Y-83373866D02*
X139933333Y-83326247D01*
X140361905Y-83707200D02*
X140457143Y-83754819D01*
X140457143Y-83754819D02*
X140647619Y-83754819D01*
X140647619Y-83754819D02*
X140742857Y-83707200D01*
X140742857Y-83707200D02*
X140790476Y-83611961D01*
X140790476Y-83611961D02*
X140790476Y-83564342D01*
X140790476Y-83564342D02*
X140742857Y-83469104D01*
X140742857Y-83469104D02*
X140647619Y-83421485D01*
X140647619Y-83421485D02*
X140504762Y-83421485D01*
X140504762Y-83421485D02*
X140409524Y-83373866D01*
X140409524Y-83373866D02*
X140361905Y-83278628D01*
X140361905Y-83278628D02*
X140361905Y-83231009D01*
X140361905Y-83231009D02*
X140409524Y-83135771D01*
X140409524Y-83135771D02*
X140504762Y-83088152D01*
X140504762Y-83088152D02*
X140647619Y-83088152D01*
X140647619Y-83088152D02*
X140742857Y-83135771D01*
X141219048Y-83754819D02*
X141219048Y-82754819D01*
X141647619Y-83754819D02*
X141647619Y-83231009D01*
X141647619Y-83231009D02*
X141600000Y-83135771D01*
X141600000Y-83135771D02*
X141504762Y-83088152D01*
X141504762Y-83088152D02*
X141361905Y-83088152D01*
X141361905Y-83088152D02*
X141266667Y-83135771D01*
X141266667Y-83135771D02*
X141219048Y-83183390D01*
X142123810Y-83088152D02*
X142123810Y-84088152D01*
X142123810Y-83135771D02*
X142219048Y-83088152D01*
X142219048Y-83088152D02*
X142409524Y-83088152D01*
X142409524Y-83088152D02*
X142504762Y-83135771D01*
X142504762Y-83135771D02*
X142552381Y-83183390D01*
X142552381Y-83183390D02*
X142600000Y-83278628D01*
X142600000Y-83278628D02*
X142600000Y-83564342D01*
X142600000Y-83564342D02*
X142552381Y-83659580D01*
X142552381Y-83659580D02*
X142504762Y-83707200D01*
X142504762Y-83707200D02*
X142409524Y-83754819D01*
X142409524Y-83754819D02*
X142219048Y-83754819D01*
X142219048Y-83754819D02*
X142123810Y-83707200D01*
X143028572Y-83754819D02*
X143028572Y-83088152D01*
X143028572Y-83278628D02*
X143076191Y-83183390D01*
X143076191Y-83183390D02*
X143123810Y-83135771D01*
X143123810Y-83135771D02*
X143219048Y-83088152D01*
X143219048Y-83088152D02*
X143314286Y-83088152D01*
X143790477Y-83754819D02*
X143695239Y-83707200D01*
X143695239Y-83707200D02*
X143647620Y-83659580D01*
X143647620Y-83659580D02*
X143600001Y-83564342D01*
X143600001Y-83564342D02*
X143600001Y-83278628D01*
X143600001Y-83278628D02*
X143647620Y-83183390D01*
X143647620Y-83183390D02*
X143695239Y-83135771D01*
X143695239Y-83135771D02*
X143790477Y-83088152D01*
X143790477Y-83088152D02*
X143933334Y-83088152D01*
X143933334Y-83088152D02*
X144028572Y-83135771D01*
X144028572Y-83135771D02*
X144076191Y-83183390D01*
X144076191Y-83183390D02*
X144123810Y-83278628D01*
X144123810Y-83278628D02*
X144123810Y-83564342D01*
X144123810Y-83564342D02*
X144076191Y-83659580D01*
X144076191Y-83659580D02*
X144028572Y-83707200D01*
X144028572Y-83707200D02*
X143933334Y-83754819D01*
X143933334Y-83754819D02*
X143790477Y-83754819D01*
X128857143Y-83469104D02*
X129333333Y-83469104D01*
X128761905Y-83754819D02*
X129095238Y-82754819D01*
X129095238Y-82754819D02*
X129428571Y-83754819D01*
X130333333Y-83754819D02*
X130000000Y-83278628D01*
X129761905Y-83754819D02*
X129761905Y-82754819D01*
X129761905Y-82754819D02*
X130142857Y-82754819D01*
X130142857Y-82754819D02*
X130238095Y-82802438D01*
X130238095Y-82802438D02*
X130285714Y-82850057D01*
X130285714Y-82850057D02*
X130333333Y-82945295D01*
X130333333Y-82945295D02*
X130333333Y-83088152D01*
X130333333Y-83088152D02*
X130285714Y-83183390D01*
X130285714Y-83183390D02*
X130238095Y-83231009D01*
X130238095Y-83231009D02*
X130142857Y-83278628D01*
X130142857Y-83278628D02*
X129761905Y-83278628D01*
X130761905Y-83754819D02*
X130761905Y-82754819D01*
X130761905Y-82754819D02*
X131095238Y-83469104D01*
X131095238Y-83469104D02*
X131428571Y-82754819D01*
X131428571Y-82754819D02*
X131428571Y-83754819D01*
X133190476Y-83754819D02*
X132619048Y-83754819D01*
X132904762Y-83754819D02*
X132904762Y-82754819D01*
X132904762Y-82754819D02*
X132809524Y-82897676D01*
X132809524Y-82897676D02*
X132714286Y-82992914D01*
X132714286Y-82992914D02*
X132619048Y-83040533D01*
X133809524Y-82754819D02*
X133904762Y-82754819D01*
X133904762Y-82754819D02*
X134000000Y-82802438D01*
X134000000Y-82802438D02*
X134047619Y-82850057D01*
X134047619Y-82850057D02*
X134095238Y-82945295D01*
X134095238Y-82945295D02*
X134142857Y-83135771D01*
X134142857Y-83135771D02*
X134142857Y-83373866D01*
X134142857Y-83373866D02*
X134095238Y-83564342D01*
X134095238Y-83564342D02*
X134047619Y-83659580D01*
X134047619Y-83659580D02*
X134000000Y-83707200D01*
X134000000Y-83707200D02*
X133904762Y-83754819D01*
X133904762Y-83754819D02*
X133809524Y-83754819D01*
X133809524Y-83754819D02*
X133714286Y-83707200D01*
X133714286Y-83707200D02*
X133666667Y-83659580D01*
X133666667Y-83659580D02*
X133619048Y-83564342D01*
X133619048Y-83564342D02*
X133571429Y-83373866D01*
X133571429Y-83373866D02*
X133571429Y-83135771D01*
X133571429Y-83135771D02*
X133619048Y-82945295D01*
X133619048Y-82945295D02*
X133666667Y-82850057D01*
X133666667Y-82850057D02*
X133714286Y-82802438D01*
X133714286Y-82802438D02*
X133809524Y-82754819D01*
X116457143Y-84569104D02*
X116933333Y-84569104D01*
X116361905Y-84854819D02*
X116695238Y-83854819D01*
X116695238Y-83854819D02*
X117028571Y-84854819D01*
X117933333Y-84854819D02*
X117600000Y-84378628D01*
X117361905Y-84854819D02*
X117361905Y-83854819D01*
X117361905Y-83854819D02*
X117742857Y-83854819D01*
X117742857Y-83854819D02*
X117838095Y-83902438D01*
X117838095Y-83902438D02*
X117885714Y-83950057D01*
X117885714Y-83950057D02*
X117933333Y-84045295D01*
X117933333Y-84045295D02*
X117933333Y-84188152D01*
X117933333Y-84188152D02*
X117885714Y-84283390D01*
X117885714Y-84283390D02*
X117838095Y-84331009D01*
X117838095Y-84331009D02*
X117742857Y-84378628D01*
X117742857Y-84378628D02*
X117361905Y-84378628D01*
X118361905Y-84854819D02*
X118361905Y-83854819D01*
X118361905Y-83854819D02*
X118695238Y-84569104D01*
X118695238Y-84569104D02*
X119028571Y-83854819D01*
X119028571Y-83854819D02*
X119028571Y-84854819D01*
X120790476Y-84854819D02*
X120219048Y-84854819D01*
X120504762Y-84854819D02*
X120504762Y-83854819D01*
X120504762Y-83854819D02*
X120409524Y-83997676D01*
X120409524Y-83997676D02*
X120314286Y-84092914D01*
X120314286Y-84092914D02*
X120219048Y-84140533D01*
X121409524Y-83854819D02*
X121504762Y-83854819D01*
X121504762Y-83854819D02*
X121600000Y-83902438D01*
X121600000Y-83902438D02*
X121647619Y-83950057D01*
X121647619Y-83950057D02*
X121695238Y-84045295D01*
X121695238Y-84045295D02*
X121742857Y-84235771D01*
X121742857Y-84235771D02*
X121742857Y-84473866D01*
X121742857Y-84473866D02*
X121695238Y-84664342D01*
X121695238Y-84664342D02*
X121647619Y-84759580D01*
X121647619Y-84759580D02*
X121600000Y-84807200D01*
X121600000Y-84807200D02*
X121504762Y-84854819D01*
X121504762Y-84854819D02*
X121409524Y-84854819D01*
X121409524Y-84854819D02*
X121314286Y-84807200D01*
X121314286Y-84807200D02*
X121266667Y-84759580D01*
X121266667Y-84759580D02*
X121219048Y-84664342D01*
X121219048Y-84664342D02*
X121171429Y-84473866D01*
X121171429Y-84473866D02*
X121171429Y-84235771D01*
X121171429Y-84235771D02*
X121219048Y-84045295D01*
X121219048Y-84045295D02*
X121266667Y-83950057D01*
X121266667Y-83950057D02*
X121314286Y-83902438D01*
X121314286Y-83902438D02*
X121409524Y-83854819D01*
D10*
X123416312Y-90583419D02*
X123082979Y-90107228D01*
X122844884Y-90583419D02*
X122844884Y-89583419D01*
X122844884Y-89583419D02*
X123225836Y-89583419D01*
X123225836Y-89583419D02*
X123321074Y-89631038D01*
X123321074Y-89631038D02*
X123368693Y-89678657D01*
X123368693Y-89678657D02*
X123416312Y-89773895D01*
X123416312Y-89773895D02*
X123416312Y-89916752D01*
X123416312Y-89916752D02*
X123368693Y-90011990D01*
X123368693Y-90011990D02*
X123321074Y-90059609D01*
X123321074Y-90059609D02*
X123225836Y-90107228D01*
X123225836Y-90107228D02*
X122844884Y-90107228D01*
X123797265Y-90535800D02*
X123940122Y-90583419D01*
X123940122Y-90583419D02*
X124178217Y-90583419D01*
X124178217Y-90583419D02*
X124273455Y-90535800D01*
X124273455Y-90535800D02*
X124321074Y-90488180D01*
X124321074Y-90488180D02*
X124368693Y-90392942D01*
X124368693Y-90392942D02*
X124368693Y-90297704D01*
X124368693Y-90297704D02*
X124321074Y-90202466D01*
X124321074Y-90202466D02*
X124273455Y-90154847D01*
X124273455Y-90154847D02*
X124178217Y-90107228D01*
X124178217Y-90107228D02*
X123987741Y-90059609D01*
X123987741Y-90059609D02*
X123892503Y-90011990D01*
X123892503Y-90011990D02*
X123844884Y-89964371D01*
X123844884Y-89964371D02*
X123797265Y-89869133D01*
X123797265Y-89869133D02*
X123797265Y-89773895D01*
X123797265Y-89773895D02*
X123844884Y-89678657D01*
X123844884Y-89678657D02*
X123892503Y-89631038D01*
X123892503Y-89631038D02*
X123987741Y-89583419D01*
X123987741Y-89583419D02*
X124225836Y-89583419D01*
X124225836Y-89583419D02*
X124368693Y-89631038D01*
X124654408Y-89583419D02*
X125225836Y-89583419D01*
X124940122Y-90583419D02*
X124940122Y-89583419D01*
X122802027Y-88333419D02*
X123373455Y-88333419D01*
X123087741Y-89333419D02*
X123087741Y-88333419D01*
X123706789Y-89333419D02*
X123706789Y-88333419D01*
X123706789Y-88333419D02*
X123944884Y-88333419D01*
X123944884Y-88333419D02*
X124087741Y-88381038D01*
X124087741Y-88381038D02*
X124182979Y-88476276D01*
X124182979Y-88476276D02*
X124230598Y-88571514D01*
X124230598Y-88571514D02*
X124278217Y-88761990D01*
X124278217Y-88761990D02*
X124278217Y-88904847D01*
X124278217Y-88904847D02*
X124230598Y-89095323D01*
X124230598Y-89095323D02*
X124182979Y-89190561D01*
X124182979Y-89190561D02*
X124087741Y-89285800D01*
X124087741Y-89285800D02*
X123944884Y-89333419D01*
X123944884Y-89333419D02*
X123706789Y-89333419D01*
X124706789Y-89333419D02*
X124706789Y-88333419D01*
X122802027Y-87133419D02*
X123373455Y-87133419D01*
X123087741Y-88133419D02*
X123087741Y-87133419D01*
X123706789Y-88133419D02*
X123706789Y-87133419D01*
X123706789Y-87133419D02*
X123944884Y-87133419D01*
X123944884Y-87133419D02*
X124087741Y-87181038D01*
X124087741Y-87181038D02*
X124182979Y-87276276D01*
X124182979Y-87276276D02*
X124230598Y-87371514D01*
X124230598Y-87371514D02*
X124278217Y-87561990D01*
X124278217Y-87561990D02*
X124278217Y-87704847D01*
X124278217Y-87704847D02*
X124230598Y-87895323D01*
X124230598Y-87895323D02*
X124182979Y-87990561D01*
X124182979Y-87990561D02*
X124087741Y-88085800D01*
X124087741Y-88085800D02*
X123944884Y-88133419D01*
X123944884Y-88133419D02*
X123706789Y-88133419D01*
X124897265Y-87133419D02*
X125087741Y-87133419D01*
X125087741Y-87133419D02*
X125182979Y-87181038D01*
X125182979Y-87181038D02*
X125278217Y-87276276D01*
X125278217Y-87276276D02*
X125325836Y-87466752D01*
X125325836Y-87466752D02*
X125325836Y-87800085D01*
X125325836Y-87800085D02*
X125278217Y-87990561D01*
X125278217Y-87990561D02*
X125182979Y-88085800D01*
X125182979Y-88085800D02*
X125087741Y-88133419D01*
X125087741Y-88133419D02*
X124897265Y-88133419D01*
X124897265Y-88133419D02*
X124802027Y-88085800D01*
X124802027Y-88085800D02*
X124706789Y-87990561D01*
X124706789Y-87990561D02*
X124659170Y-87800085D01*
X124659170Y-87800085D02*
X124659170Y-87466752D01*
X124659170Y-87466752D02*
X124706789Y-87276276D01*
X124706789Y-87276276D02*
X124802027Y-87181038D01*
X124802027Y-87181038D02*
X124897265Y-87133419D01*
X122802027Y-84533419D02*
X123373455Y-84533419D01*
X123087741Y-85533419D02*
X123087741Y-84533419D01*
X123706789Y-85533419D02*
X123706789Y-84533419D01*
X123706789Y-84533419D02*
X124040122Y-85247704D01*
X124040122Y-85247704D02*
X124373455Y-84533419D01*
X124373455Y-84533419D02*
X124373455Y-85533419D01*
X124802027Y-85485800D02*
X124944884Y-85533419D01*
X124944884Y-85533419D02*
X125182979Y-85533419D01*
X125182979Y-85533419D02*
X125278217Y-85485800D01*
X125278217Y-85485800D02*
X125325836Y-85438180D01*
X125325836Y-85438180D02*
X125373455Y-85342942D01*
X125373455Y-85342942D02*
X125373455Y-85247704D01*
X125373455Y-85247704D02*
X125325836Y-85152466D01*
X125325836Y-85152466D02*
X125278217Y-85104847D01*
X125278217Y-85104847D02*
X125182979Y-85057228D01*
X125182979Y-85057228D02*
X124992503Y-85009609D01*
X124992503Y-85009609D02*
X124897265Y-84961990D01*
X124897265Y-84961990D02*
X124849646Y-84914371D01*
X124849646Y-84914371D02*
X124802027Y-84819133D01*
X124802027Y-84819133D02*
X124802027Y-84723895D01*
X124802027Y-84723895D02*
X124849646Y-84628657D01*
X124849646Y-84628657D02*
X124897265Y-84581038D01*
X124897265Y-84581038D02*
X124992503Y-84533419D01*
X124992503Y-84533419D02*
X125230598Y-84533419D01*
X125230598Y-84533419D02*
X125373455Y-84581038D01*
X122802027Y-85883419D02*
X123373455Y-85883419D01*
X123087741Y-86883419D02*
X123087741Y-85883419D01*
X124278217Y-86788180D02*
X124230598Y-86835800D01*
X124230598Y-86835800D02*
X124087741Y-86883419D01*
X124087741Y-86883419D02*
X123992503Y-86883419D01*
X123992503Y-86883419D02*
X123849646Y-86835800D01*
X123849646Y-86835800D02*
X123754408Y-86740561D01*
X123754408Y-86740561D02*
X123706789Y-86645323D01*
X123706789Y-86645323D02*
X123659170Y-86454847D01*
X123659170Y-86454847D02*
X123659170Y-86311990D01*
X123659170Y-86311990D02*
X123706789Y-86121514D01*
X123706789Y-86121514D02*
X123754408Y-86026276D01*
X123754408Y-86026276D02*
X123849646Y-85931038D01*
X123849646Y-85931038D02*
X123992503Y-85883419D01*
X123992503Y-85883419D02*
X124087741Y-85883419D01*
X124087741Y-85883419D02*
X124230598Y-85931038D01*
X124230598Y-85931038D02*
X124278217Y-85978657D01*
X124706789Y-86883419D02*
X124706789Y-85883419D01*
X125278217Y-86883419D02*
X124849646Y-86311990D01*
X125278217Y-85883419D02*
X124706789Y-86454847D01*
X117194884Y-92183419D02*
X117194884Y-91183419D01*
X117194884Y-91183419D02*
X117766312Y-92183419D01*
X117766312Y-92183419D02*
X117766312Y-91183419D01*
X118813931Y-92088180D02*
X118766312Y-92135800D01*
X118766312Y-92135800D02*
X118623455Y-92183419D01*
X118623455Y-92183419D02*
X118528217Y-92183419D01*
X118528217Y-92183419D02*
X118385360Y-92135800D01*
X118385360Y-92135800D02*
X118290122Y-92040561D01*
X118290122Y-92040561D02*
X118242503Y-91945323D01*
X118242503Y-91945323D02*
X118194884Y-91754847D01*
X118194884Y-91754847D02*
X118194884Y-91611990D01*
X118194884Y-91611990D02*
X118242503Y-91421514D01*
X118242503Y-91421514D02*
X118290122Y-91326276D01*
X118290122Y-91326276D02*
X118385360Y-91231038D01*
X118385360Y-91231038D02*
X118528217Y-91183419D01*
X118528217Y-91183419D02*
X118623455Y-91183419D01*
X118623455Y-91183419D02*
X118766312Y-91231038D01*
X118766312Y-91231038D02*
X118813931Y-91278657D01*
X116791193Y-89998538D02*
X116695955Y-89950919D01*
X116695955Y-89950919D02*
X116553098Y-89950919D01*
X116553098Y-89950919D02*
X116410241Y-89998538D01*
X116410241Y-89998538D02*
X116315003Y-90093776D01*
X116315003Y-90093776D02*
X116267384Y-90189014D01*
X116267384Y-90189014D02*
X116219765Y-90379490D01*
X116219765Y-90379490D02*
X116219765Y-90522347D01*
X116219765Y-90522347D02*
X116267384Y-90712823D01*
X116267384Y-90712823D02*
X116315003Y-90808061D01*
X116315003Y-90808061D02*
X116410241Y-90903300D01*
X116410241Y-90903300D02*
X116553098Y-90950919D01*
X116553098Y-90950919D02*
X116648336Y-90950919D01*
X116648336Y-90950919D02*
X116791193Y-90903300D01*
X116791193Y-90903300D02*
X116838812Y-90855680D01*
X116838812Y-90855680D02*
X116838812Y-90522347D01*
X116838812Y-90522347D02*
X116648336Y-90522347D01*
X117267384Y-90950919D02*
X117267384Y-89950919D01*
X117267384Y-89950919D02*
X117838812Y-90950919D01*
X117838812Y-90950919D02*
X117838812Y-89950919D01*
X118315003Y-90950919D02*
X118315003Y-89950919D01*
X118315003Y-89950919D02*
X118553098Y-89950919D01*
X118553098Y-89950919D02*
X118695955Y-89998538D01*
X118695955Y-89998538D02*
X118791193Y-90093776D01*
X118791193Y-90093776D02*
X118838812Y-90189014D01*
X118838812Y-90189014D02*
X118886431Y-90379490D01*
X118886431Y-90379490D02*
X118886431Y-90522347D01*
X118886431Y-90522347D02*
X118838812Y-90712823D01*
X118838812Y-90712823D02*
X118791193Y-90808061D01*
X118791193Y-90808061D02*
X118695955Y-90903300D01*
X118695955Y-90903300D02*
X118553098Y-90950919D01*
X118553098Y-90950919D02*
X118315003Y-90950919D01*
X116791193Y-92598538D02*
X116695955Y-92550919D01*
X116695955Y-92550919D02*
X116553098Y-92550919D01*
X116553098Y-92550919D02*
X116410241Y-92598538D01*
X116410241Y-92598538D02*
X116315003Y-92693776D01*
X116315003Y-92693776D02*
X116267384Y-92789014D01*
X116267384Y-92789014D02*
X116219765Y-92979490D01*
X116219765Y-92979490D02*
X116219765Y-93122347D01*
X116219765Y-93122347D02*
X116267384Y-93312823D01*
X116267384Y-93312823D02*
X116315003Y-93408061D01*
X116315003Y-93408061D02*
X116410241Y-93503300D01*
X116410241Y-93503300D02*
X116553098Y-93550919D01*
X116553098Y-93550919D02*
X116648336Y-93550919D01*
X116648336Y-93550919D02*
X116791193Y-93503300D01*
X116791193Y-93503300D02*
X116838812Y-93455680D01*
X116838812Y-93455680D02*
X116838812Y-93122347D01*
X116838812Y-93122347D02*
X116648336Y-93122347D01*
X117267384Y-93550919D02*
X117267384Y-92550919D01*
X117267384Y-92550919D02*
X117838812Y-93550919D01*
X117838812Y-93550919D02*
X117838812Y-92550919D01*
X118315003Y-93550919D02*
X118315003Y-92550919D01*
X118315003Y-92550919D02*
X118553098Y-92550919D01*
X118553098Y-92550919D02*
X118695955Y-92598538D01*
X118695955Y-92598538D02*
X118791193Y-92693776D01*
X118791193Y-92693776D02*
X118838812Y-92789014D01*
X118838812Y-92789014D02*
X118886431Y-92979490D01*
X118886431Y-92979490D02*
X118886431Y-93122347D01*
X118886431Y-93122347D02*
X118838812Y-93312823D01*
X118838812Y-93312823D02*
X118791193Y-93408061D01*
X118791193Y-93408061D02*
X118695955Y-93503300D01*
X118695955Y-93503300D02*
X118553098Y-93550919D01*
X118553098Y-93550919D02*
X118315003Y-93550919D01*
X116741193Y-88698538D02*
X116645955Y-88650919D01*
X116645955Y-88650919D02*
X116503098Y-88650919D01*
X116503098Y-88650919D02*
X116360241Y-88698538D01*
X116360241Y-88698538D02*
X116265003Y-88793776D01*
X116265003Y-88793776D02*
X116217384Y-88889014D01*
X116217384Y-88889014D02*
X116169765Y-89079490D01*
X116169765Y-89079490D02*
X116169765Y-89222347D01*
X116169765Y-89222347D02*
X116217384Y-89412823D01*
X116217384Y-89412823D02*
X116265003Y-89508061D01*
X116265003Y-89508061D02*
X116360241Y-89603300D01*
X116360241Y-89603300D02*
X116503098Y-89650919D01*
X116503098Y-89650919D02*
X116598336Y-89650919D01*
X116598336Y-89650919D02*
X116741193Y-89603300D01*
X116741193Y-89603300D02*
X116788812Y-89555680D01*
X116788812Y-89555680D02*
X116788812Y-89222347D01*
X116788812Y-89222347D02*
X116598336Y-89222347D01*
X117217384Y-89650919D02*
X117217384Y-88650919D01*
X117217384Y-88650919D02*
X117788812Y-89650919D01*
X117788812Y-89650919D02*
X117788812Y-88650919D01*
X118265003Y-89650919D02*
X118265003Y-88650919D01*
X118265003Y-88650919D02*
X118503098Y-88650919D01*
X118503098Y-88650919D02*
X118645955Y-88698538D01*
X118645955Y-88698538D02*
X118741193Y-88793776D01*
X118741193Y-88793776D02*
X118788812Y-88889014D01*
X118788812Y-88889014D02*
X118836431Y-89079490D01*
X118836431Y-89079490D02*
X118836431Y-89222347D01*
X118836431Y-89222347D02*
X118788812Y-89412823D01*
X118788812Y-89412823D02*
X118741193Y-89508061D01*
X118741193Y-89508061D02*
X118645955Y-89603300D01*
X118645955Y-89603300D02*
X118503098Y-89650919D01*
X118503098Y-89650919D02*
X118265003Y-89650919D01*
X116299646Y-87233419D02*
X116918693Y-87233419D01*
X116918693Y-87233419D02*
X116585360Y-87614371D01*
X116585360Y-87614371D02*
X116728217Y-87614371D01*
X116728217Y-87614371D02*
X116823455Y-87661990D01*
X116823455Y-87661990D02*
X116871074Y-87709609D01*
X116871074Y-87709609D02*
X116918693Y-87804847D01*
X116918693Y-87804847D02*
X116918693Y-88042942D01*
X116918693Y-88042942D02*
X116871074Y-88138180D01*
X116871074Y-88138180D02*
X116823455Y-88185800D01*
X116823455Y-88185800D02*
X116728217Y-88233419D01*
X116728217Y-88233419D02*
X116442503Y-88233419D01*
X116442503Y-88233419D02*
X116347265Y-88185800D01*
X116347265Y-88185800D02*
X116299646Y-88138180D01*
X117204408Y-87233419D02*
X117537741Y-88233419D01*
X117537741Y-88233419D02*
X117871074Y-87233419D01*
X118109170Y-87233419D02*
X118728217Y-87233419D01*
X118728217Y-87233419D02*
X118394884Y-87614371D01*
X118394884Y-87614371D02*
X118537741Y-87614371D01*
X118537741Y-87614371D02*
X118632979Y-87661990D01*
X118632979Y-87661990D02*
X118680598Y-87709609D01*
X118680598Y-87709609D02*
X118728217Y-87804847D01*
X118728217Y-87804847D02*
X118728217Y-88042942D01*
X118728217Y-88042942D02*
X118680598Y-88138180D01*
X118680598Y-88138180D02*
X118632979Y-88185800D01*
X118632979Y-88185800D02*
X118537741Y-88233419D01*
X118537741Y-88233419D02*
X118252027Y-88233419D01*
X118252027Y-88233419D02*
X118156789Y-88185800D01*
X118156789Y-88185800D02*
X118109170Y-88138180D01*
X124188693Y-97171038D02*
X124093455Y-97123419D01*
X124093455Y-97123419D02*
X123950598Y-97123419D01*
X123950598Y-97123419D02*
X123807741Y-97171038D01*
X123807741Y-97171038D02*
X123712503Y-97266276D01*
X123712503Y-97266276D02*
X123664884Y-97361514D01*
X123664884Y-97361514D02*
X123617265Y-97551990D01*
X123617265Y-97551990D02*
X123617265Y-97694847D01*
X123617265Y-97694847D02*
X123664884Y-97885323D01*
X123664884Y-97885323D02*
X123712503Y-97980561D01*
X123712503Y-97980561D02*
X123807741Y-98075800D01*
X123807741Y-98075800D02*
X123950598Y-98123419D01*
X123950598Y-98123419D02*
X124045836Y-98123419D01*
X124045836Y-98123419D02*
X124188693Y-98075800D01*
X124188693Y-98075800D02*
X124236312Y-98028180D01*
X124236312Y-98028180D02*
X124236312Y-97694847D01*
X124236312Y-97694847D02*
X124045836Y-97694847D01*
X124664884Y-98123419D02*
X124664884Y-97123419D01*
X124664884Y-97123419D02*
X125236312Y-98123419D01*
X125236312Y-98123419D02*
X125236312Y-97123419D01*
X125712503Y-98123419D02*
X125712503Y-97123419D01*
X125712503Y-97123419D02*
X125950598Y-97123419D01*
X125950598Y-97123419D02*
X126093455Y-97171038D01*
X126093455Y-97171038D02*
X126188693Y-97266276D01*
X126188693Y-97266276D02*
X126236312Y-97361514D01*
X126236312Y-97361514D02*
X126283931Y-97551990D01*
X126283931Y-97551990D02*
X126283931Y-97694847D01*
X126283931Y-97694847D02*
X126236312Y-97885323D01*
X126236312Y-97885323D02*
X126188693Y-97980561D01*
X126188693Y-97980561D02*
X126093455Y-98075800D01*
X126093455Y-98075800D02*
X125950598Y-98123419D01*
X125950598Y-98123419D02*
X125712503Y-98123419D01*
X124664884Y-96823419D02*
X124664884Y-95823419D01*
X124664884Y-95823419D02*
X125236312Y-96823419D01*
X125236312Y-96823419D02*
X125236312Y-95823419D01*
X126283931Y-96728180D02*
X126236312Y-96775800D01*
X126236312Y-96775800D02*
X126093455Y-96823419D01*
X126093455Y-96823419D02*
X125998217Y-96823419D01*
X125998217Y-96823419D02*
X125855360Y-96775800D01*
X125855360Y-96775800D02*
X125760122Y-96680561D01*
X125760122Y-96680561D02*
X125712503Y-96585323D01*
X125712503Y-96585323D02*
X125664884Y-96394847D01*
X125664884Y-96394847D02*
X125664884Y-96251990D01*
X125664884Y-96251990D02*
X125712503Y-96061514D01*
X125712503Y-96061514D02*
X125760122Y-95966276D01*
X125760122Y-95966276D02*
X125855360Y-95871038D01*
X125855360Y-95871038D02*
X125998217Y-95823419D01*
X125998217Y-95823419D02*
X126093455Y-95823419D01*
X126093455Y-95823419D02*
X126236312Y-95871038D01*
X126236312Y-95871038D02*
X126283931Y-95918657D01*
X124188693Y-94571038D02*
X124093455Y-94523419D01*
X124093455Y-94523419D02*
X123950598Y-94523419D01*
X123950598Y-94523419D02*
X123807741Y-94571038D01*
X123807741Y-94571038D02*
X123712503Y-94666276D01*
X123712503Y-94666276D02*
X123664884Y-94761514D01*
X123664884Y-94761514D02*
X123617265Y-94951990D01*
X123617265Y-94951990D02*
X123617265Y-95094847D01*
X123617265Y-95094847D02*
X123664884Y-95285323D01*
X123664884Y-95285323D02*
X123712503Y-95380561D01*
X123712503Y-95380561D02*
X123807741Y-95475800D01*
X123807741Y-95475800D02*
X123950598Y-95523419D01*
X123950598Y-95523419D02*
X124045836Y-95523419D01*
X124045836Y-95523419D02*
X124188693Y-95475800D01*
X124188693Y-95475800D02*
X124236312Y-95428180D01*
X124236312Y-95428180D02*
X124236312Y-95094847D01*
X124236312Y-95094847D02*
X124045836Y-95094847D01*
X124664884Y-95523419D02*
X124664884Y-94523419D01*
X124664884Y-94523419D02*
X125236312Y-95523419D01*
X125236312Y-95523419D02*
X125236312Y-94523419D01*
X125712503Y-95523419D02*
X125712503Y-94523419D01*
X125712503Y-94523419D02*
X125950598Y-94523419D01*
X125950598Y-94523419D02*
X126093455Y-94571038D01*
X126093455Y-94571038D02*
X126188693Y-94666276D01*
X126188693Y-94666276D02*
X126236312Y-94761514D01*
X126236312Y-94761514D02*
X126283931Y-94951990D01*
X126283931Y-94951990D02*
X126283931Y-95094847D01*
X126283931Y-95094847D02*
X126236312Y-95285323D01*
X126236312Y-95285323D02*
X126188693Y-95380561D01*
X126188693Y-95380561D02*
X126093455Y-95475800D01*
X126093455Y-95475800D02*
X125950598Y-95523419D01*
X125950598Y-95523419D02*
X125712503Y-95523419D01*
X124138693Y-93271038D02*
X124043455Y-93223419D01*
X124043455Y-93223419D02*
X123900598Y-93223419D01*
X123900598Y-93223419D02*
X123757741Y-93271038D01*
X123757741Y-93271038D02*
X123662503Y-93366276D01*
X123662503Y-93366276D02*
X123614884Y-93461514D01*
X123614884Y-93461514D02*
X123567265Y-93651990D01*
X123567265Y-93651990D02*
X123567265Y-93794847D01*
X123567265Y-93794847D02*
X123614884Y-93985323D01*
X123614884Y-93985323D02*
X123662503Y-94080561D01*
X123662503Y-94080561D02*
X123757741Y-94175800D01*
X123757741Y-94175800D02*
X123900598Y-94223419D01*
X123900598Y-94223419D02*
X123995836Y-94223419D01*
X123995836Y-94223419D02*
X124138693Y-94175800D01*
X124138693Y-94175800D02*
X124186312Y-94128180D01*
X124186312Y-94128180D02*
X124186312Y-93794847D01*
X124186312Y-93794847D02*
X123995836Y-93794847D01*
X124614884Y-94223419D02*
X124614884Y-93223419D01*
X124614884Y-93223419D02*
X125186312Y-94223419D01*
X125186312Y-94223419D02*
X125186312Y-93223419D01*
X125662503Y-94223419D02*
X125662503Y-93223419D01*
X125662503Y-93223419D02*
X125900598Y-93223419D01*
X125900598Y-93223419D02*
X126043455Y-93271038D01*
X126043455Y-93271038D02*
X126138693Y-93366276D01*
X126138693Y-93366276D02*
X126186312Y-93461514D01*
X126186312Y-93461514D02*
X126233931Y-93651990D01*
X126233931Y-93651990D02*
X126233931Y-93794847D01*
X126233931Y-93794847D02*
X126186312Y-93985323D01*
X126186312Y-93985323D02*
X126138693Y-94080561D01*
X126138693Y-94080561D02*
X126043455Y-94175800D01*
X126043455Y-94175800D02*
X125900598Y-94223419D01*
X125900598Y-94223419D02*
X125662503Y-94223419D01*
X123769646Y-91873419D02*
X124388693Y-91873419D01*
X124388693Y-91873419D02*
X124055360Y-92254371D01*
X124055360Y-92254371D02*
X124198217Y-92254371D01*
X124198217Y-92254371D02*
X124293455Y-92301990D01*
X124293455Y-92301990D02*
X124341074Y-92349609D01*
X124341074Y-92349609D02*
X124388693Y-92444847D01*
X124388693Y-92444847D02*
X124388693Y-92682942D01*
X124388693Y-92682942D02*
X124341074Y-92778180D01*
X124341074Y-92778180D02*
X124293455Y-92825800D01*
X124293455Y-92825800D02*
X124198217Y-92873419D01*
X124198217Y-92873419D02*
X123912503Y-92873419D01*
X123912503Y-92873419D02*
X123817265Y-92825800D01*
X123817265Y-92825800D02*
X123769646Y-92778180D01*
X124674408Y-91873419D02*
X125007741Y-92873419D01*
X125007741Y-92873419D02*
X125341074Y-91873419D01*
X125579170Y-91873419D02*
X126198217Y-91873419D01*
X126198217Y-91873419D02*
X125864884Y-92254371D01*
X125864884Y-92254371D02*
X126007741Y-92254371D01*
X126007741Y-92254371D02*
X126102979Y-92301990D01*
X126102979Y-92301990D02*
X126150598Y-92349609D01*
X126150598Y-92349609D02*
X126198217Y-92444847D01*
X126198217Y-92444847D02*
X126198217Y-92682942D01*
X126198217Y-92682942D02*
X126150598Y-92778180D01*
X126150598Y-92778180D02*
X126102979Y-92825800D01*
X126102979Y-92825800D02*
X126007741Y-92873419D01*
X126007741Y-92873419D02*
X125722027Y-92873419D01*
X125722027Y-92873419D02*
X125626789Y-92825800D01*
X125626789Y-92825800D02*
X125579170Y-92778180D01*
X132486312Y-98073419D02*
X132152979Y-97597228D01*
X131914884Y-98073419D02*
X131914884Y-97073419D01*
X131914884Y-97073419D02*
X132295836Y-97073419D01*
X132295836Y-97073419D02*
X132391074Y-97121038D01*
X132391074Y-97121038D02*
X132438693Y-97168657D01*
X132438693Y-97168657D02*
X132486312Y-97263895D01*
X132486312Y-97263895D02*
X132486312Y-97406752D01*
X132486312Y-97406752D02*
X132438693Y-97501990D01*
X132438693Y-97501990D02*
X132391074Y-97549609D01*
X132391074Y-97549609D02*
X132295836Y-97597228D01*
X132295836Y-97597228D02*
X131914884Y-97597228D01*
X132867265Y-98025800D02*
X133010122Y-98073419D01*
X133010122Y-98073419D02*
X133248217Y-98073419D01*
X133248217Y-98073419D02*
X133343455Y-98025800D01*
X133343455Y-98025800D02*
X133391074Y-97978180D01*
X133391074Y-97978180D02*
X133438693Y-97882942D01*
X133438693Y-97882942D02*
X133438693Y-97787704D01*
X133438693Y-97787704D02*
X133391074Y-97692466D01*
X133391074Y-97692466D02*
X133343455Y-97644847D01*
X133343455Y-97644847D02*
X133248217Y-97597228D01*
X133248217Y-97597228D02*
X133057741Y-97549609D01*
X133057741Y-97549609D02*
X132962503Y-97501990D01*
X132962503Y-97501990D02*
X132914884Y-97454371D01*
X132914884Y-97454371D02*
X132867265Y-97359133D01*
X132867265Y-97359133D02*
X132867265Y-97263895D01*
X132867265Y-97263895D02*
X132914884Y-97168657D01*
X132914884Y-97168657D02*
X132962503Y-97121038D01*
X132962503Y-97121038D02*
X133057741Y-97073419D01*
X133057741Y-97073419D02*
X133295836Y-97073419D01*
X133295836Y-97073419D02*
X133438693Y-97121038D01*
X133724408Y-97073419D02*
X134295836Y-97073419D01*
X134010122Y-98073419D02*
X134010122Y-97073419D01*
X131872027Y-95823419D02*
X132443455Y-95823419D01*
X132157741Y-96823419D02*
X132157741Y-95823419D01*
X132776789Y-96823419D02*
X132776789Y-95823419D01*
X132776789Y-95823419D02*
X133014884Y-95823419D01*
X133014884Y-95823419D02*
X133157741Y-95871038D01*
X133157741Y-95871038D02*
X133252979Y-95966276D01*
X133252979Y-95966276D02*
X133300598Y-96061514D01*
X133300598Y-96061514D02*
X133348217Y-96251990D01*
X133348217Y-96251990D02*
X133348217Y-96394847D01*
X133348217Y-96394847D02*
X133300598Y-96585323D01*
X133300598Y-96585323D02*
X133252979Y-96680561D01*
X133252979Y-96680561D02*
X133157741Y-96775800D01*
X133157741Y-96775800D02*
X133014884Y-96823419D01*
X133014884Y-96823419D02*
X132776789Y-96823419D01*
X133776789Y-96823419D02*
X133776789Y-95823419D01*
X131872027Y-94623419D02*
X132443455Y-94623419D01*
X132157741Y-95623419D02*
X132157741Y-94623419D01*
X132776789Y-95623419D02*
X132776789Y-94623419D01*
X132776789Y-94623419D02*
X133014884Y-94623419D01*
X133014884Y-94623419D02*
X133157741Y-94671038D01*
X133157741Y-94671038D02*
X133252979Y-94766276D01*
X133252979Y-94766276D02*
X133300598Y-94861514D01*
X133300598Y-94861514D02*
X133348217Y-95051990D01*
X133348217Y-95051990D02*
X133348217Y-95194847D01*
X133348217Y-95194847D02*
X133300598Y-95385323D01*
X133300598Y-95385323D02*
X133252979Y-95480561D01*
X133252979Y-95480561D02*
X133157741Y-95575800D01*
X133157741Y-95575800D02*
X133014884Y-95623419D01*
X133014884Y-95623419D02*
X132776789Y-95623419D01*
X133967265Y-94623419D02*
X134157741Y-94623419D01*
X134157741Y-94623419D02*
X134252979Y-94671038D01*
X134252979Y-94671038D02*
X134348217Y-94766276D01*
X134348217Y-94766276D02*
X134395836Y-94956752D01*
X134395836Y-94956752D02*
X134395836Y-95290085D01*
X134395836Y-95290085D02*
X134348217Y-95480561D01*
X134348217Y-95480561D02*
X134252979Y-95575800D01*
X134252979Y-95575800D02*
X134157741Y-95623419D01*
X134157741Y-95623419D02*
X133967265Y-95623419D01*
X133967265Y-95623419D02*
X133872027Y-95575800D01*
X133872027Y-95575800D02*
X133776789Y-95480561D01*
X133776789Y-95480561D02*
X133729170Y-95290085D01*
X133729170Y-95290085D02*
X133729170Y-94956752D01*
X133729170Y-94956752D02*
X133776789Y-94766276D01*
X133776789Y-94766276D02*
X133872027Y-94671038D01*
X133872027Y-94671038D02*
X133967265Y-94623419D01*
X131872027Y-93373419D02*
X132443455Y-93373419D01*
X132157741Y-94373419D02*
X132157741Y-93373419D01*
X133348217Y-94278180D02*
X133300598Y-94325800D01*
X133300598Y-94325800D02*
X133157741Y-94373419D01*
X133157741Y-94373419D02*
X133062503Y-94373419D01*
X133062503Y-94373419D02*
X132919646Y-94325800D01*
X132919646Y-94325800D02*
X132824408Y-94230561D01*
X132824408Y-94230561D02*
X132776789Y-94135323D01*
X132776789Y-94135323D02*
X132729170Y-93944847D01*
X132729170Y-93944847D02*
X132729170Y-93801990D01*
X132729170Y-93801990D02*
X132776789Y-93611514D01*
X132776789Y-93611514D02*
X132824408Y-93516276D01*
X132824408Y-93516276D02*
X132919646Y-93421038D01*
X132919646Y-93421038D02*
X133062503Y-93373419D01*
X133062503Y-93373419D02*
X133157741Y-93373419D01*
X133157741Y-93373419D02*
X133300598Y-93421038D01*
X133300598Y-93421038D02*
X133348217Y-93468657D01*
X133776789Y-94373419D02*
X133776789Y-93373419D01*
X134348217Y-94373419D02*
X133919646Y-93801990D01*
X134348217Y-93373419D02*
X133776789Y-93944847D01*
X131872027Y-92023419D02*
X132443455Y-92023419D01*
X132157741Y-93023419D02*
X132157741Y-92023419D01*
X132776789Y-93023419D02*
X132776789Y-92023419D01*
X132776789Y-92023419D02*
X133110122Y-92737704D01*
X133110122Y-92737704D02*
X133443455Y-92023419D01*
X133443455Y-92023419D02*
X133443455Y-93023419D01*
X133872027Y-92975800D02*
X134014884Y-93023419D01*
X134014884Y-93023419D02*
X134252979Y-93023419D01*
X134252979Y-93023419D02*
X134348217Y-92975800D01*
X134348217Y-92975800D02*
X134395836Y-92928180D01*
X134395836Y-92928180D02*
X134443455Y-92832942D01*
X134443455Y-92832942D02*
X134443455Y-92737704D01*
X134443455Y-92737704D02*
X134395836Y-92642466D01*
X134395836Y-92642466D02*
X134348217Y-92594847D01*
X134348217Y-92594847D02*
X134252979Y-92547228D01*
X134252979Y-92547228D02*
X134062503Y-92499609D01*
X134062503Y-92499609D02*
X133967265Y-92451990D01*
X133967265Y-92451990D02*
X133919646Y-92404371D01*
X133919646Y-92404371D02*
X133872027Y-92309133D01*
X133872027Y-92309133D02*
X133872027Y-92213895D01*
X133872027Y-92213895D02*
X133919646Y-92118657D01*
X133919646Y-92118657D02*
X133967265Y-92071038D01*
X133967265Y-92071038D02*
X134062503Y-92023419D01*
X134062503Y-92023419D02*
X134300598Y-92023419D01*
X134300598Y-92023419D02*
X134443455Y-92071038D01*
X133239527Y-90123419D02*
X133810955Y-90123419D01*
X133525241Y-91123419D02*
X133525241Y-90123419D01*
X134144289Y-91123419D02*
X134144289Y-90123419D01*
X134144289Y-90123419D02*
X134382384Y-90123419D01*
X134382384Y-90123419D02*
X134525241Y-90171038D01*
X134525241Y-90171038D02*
X134620479Y-90266276D01*
X134620479Y-90266276D02*
X134668098Y-90361514D01*
X134668098Y-90361514D02*
X134715717Y-90551990D01*
X134715717Y-90551990D02*
X134715717Y-90694847D01*
X134715717Y-90694847D02*
X134668098Y-90885323D01*
X134668098Y-90885323D02*
X134620479Y-90980561D01*
X134620479Y-90980561D02*
X134525241Y-91075800D01*
X134525241Y-91075800D02*
X134382384Y-91123419D01*
X134382384Y-91123419D02*
X134144289Y-91123419D01*
X135144289Y-91123419D02*
X135144289Y-90123419D01*
X133532384Y-89923419D02*
X133532384Y-88923419D01*
X133532384Y-88923419D02*
X134103812Y-89923419D01*
X134103812Y-89923419D02*
X134103812Y-88923419D01*
X135151431Y-89828180D02*
X135103812Y-89875800D01*
X135103812Y-89875800D02*
X134960955Y-89923419D01*
X134960955Y-89923419D02*
X134865717Y-89923419D01*
X134865717Y-89923419D02*
X134722860Y-89875800D01*
X134722860Y-89875800D02*
X134627622Y-89780561D01*
X134627622Y-89780561D02*
X134580003Y-89685323D01*
X134580003Y-89685323D02*
X134532384Y-89494847D01*
X134532384Y-89494847D02*
X134532384Y-89351990D01*
X134532384Y-89351990D02*
X134580003Y-89161514D01*
X134580003Y-89161514D02*
X134627622Y-89066276D01*
X134627622Y-89066276D02*
X134722860Y-88971038D01*
X134722860Y-88971038D02*
X134865717Y-88923419D01*
X134865717Y-88923419D02*
X134960955Y-88923419D01*
X134960955Y-88923419D02*
X135103812Y-88971038D01*
X135103812Y-88971038D02*
X135151431Y-89018657D01*
X132639527Y-87723419D02*
X133210955Y-87723419D01*
X132925241Y-88723419D02*
X132925241Y-87723419D01*
X133544289Y-88723419D02*
X133544289Y-87723419D01*
X133544289Y-87723419D02*
X133877622Y-88437704D01*
X133877622Y-88437704D02*
X134210955Y-87723419D01*
X134210955Y-87723419D02*
X134210955Y-88723419D01*
X134639527Y-88675800D02*
X134782384Y-88723419D01*
X134782384Y-88723419D02*
X135020479Y-88723419D01*
X135020479Y-88723419D02*
X135115717Y-88675800D01*
X135115717Y-88675800D02*
X135163336Y-88628180D01*
X135163336Y-88628180D02*
X135210955Y-88532942D01*
X135210955Y-88532942D02*
X135210955Y-88437704D01*
X135210955Y-88437704D02*
X135163336Y-88342466D01*
X135163336Y-88342466D02*
X135115717Y-88294847D01*
X135115717Y-88294847D02*
X135020479Y-88247228D01*
X135020479Y-88247228D02*
X134830003Y-88199609D01*
X134830003Y-88199609D02*
X134734765Y-88151990D01*
X134734765Y-88151990D02*
X134687146Y-88104371D01*
X134687146Y-88104371D02*
X134639527Y-88009133D01*
X134639527Y-88009133D02*
X134639527Y-87913895D01*
X134639527Y-87913895D02*
X134687146Y-87818657D01*
X134687146Y-87818657D02*
X134734765Y-87771038D01*
X134734765Y-87771038D02*
X134830003Y-87723419D01*
X134830003Y-87723419D02*
X135068098Y-87723419D01*
X135068098Y-87723419D02*
X135210955Y-87771038D01*
X132639527Y-86473419D02*
X133210955Y-86473419D01*
X132925241Y-87473419D02*
X132925241Y-86473419D01*
X133544289Y-87473419D02*
X133544289Y-86473419D01*
X133544289Y-86473419D02*
X133782384Y-86473419D01*
X133782384Y-86473419D02*
X133925241Y-86521038D01*
X133925241Y-86521038D02*
X134020479Y-86616276D01*
X134020479Y-86616276D02*
X134068098Y-86711514D01*
X134068098Y-86711514D02*
X134115717Y-86901990D01*
X134115717Y-86901990D02*
X134115717Y-87044847D01*
X134115717Y-87044847D02*
X134068098Y-87235323D01*
X134068098Y-87235323D02*
X134020479Y-87330561D01*
X134020479Y-87330561D02*
X133925241Y-87425800D01*
X133925241Y-87425800D02*
X133782384Y-87473419D01*
X133782384Y-87473419D02*
X133544289Y-87473419D01*
X134734765Y-86473419D02*
X134925241Y-86473419D01*
X134925241Y-86473419D02*
X135020479Y-86521038D01*
X135020479Y-86521038D02*
X135115717Y-86616276D01*
X135115717Y-86616276D02*
X135163336Y-86806752D01*
X135163336Y-86806752D02*
X135163336Y-87140085D01*
X135163336Y-87140085D02*
X135115717Y-87330561D01*
X135115717Y-87330561D02*
X135020479Y-87425800D01*
X135020479Y-87425800D02*
X134925241Y-87473419D01*
X134925241Y-87473419D02*
X134734765Y-87473419D01*
X134734765Y-87473419D02*
X134639527Y-87425800D01*
X134639527Y-87425800D02*
X134544289Y-87330561D01*
X134544289Y-87330561D02*
X134496670Y-87140085D01*
X134496670Y-87140085D02*
X134496670Y-86806752D01*
X134496670Y-86806752D02*
X134544289Y-86616276D01*
X134544289Y-86616276D02*
X134639527Y-86521038D01*
X134639527Y-86521038D02*
X134734765Y-86473419D01*
X132639527Y-85273419D02*
X133210955Y-85273419D01*
X132925241Y-86273419D02*
X132925241Y-85273419D01*
X134115717Y-86178180D02*
X134068098Y-86225800D01*
X134068098Y-86225800D02*
X133925241Y-86273419D01*
X133925241Y-86273419D02*
X133830003Y-86273419D01*
X133830003Y-86273419D02*
X133687146Y-86225800D01*
X133687146Y-86225800D02*
X133591908Y-86130561D01*
X133591908Y-86130561D02*
X133544289Y-86035323D01*
X133544289Y-86035323D02*
X133496670Y-85844847D01*
X133496670Y-85844847D02*
X133496670Y-85701990D01*
X133496670Y-85701990D02*
X133544289Y-85511514D01*
X133544289Y-85511514D02*
X133591908Y-85416276D01*
X133591908Y-85416276D02*
X133687146Y-85321038D01*
X133687146Y-85321038D02*
X133830003Y-85273419D01*
X133830003Y-85273419D02*
X133925241Y-85273419D01*
X133925241Y-85273419D02*
X134068098Y-85321038D01*
X134068098Y-85321038D02*
X134115717Y-85368657D01*
X134544289Y-86273419D02*
X134544289Y-85273419D01*
X135115717Y-86273419D02*
X134687146Y-85701990D01*
X135115717Y-85273419D02*
X134544289Y-85844847D01*
X141456193Y-96219538D02*
X141360955Y-96171919D01*
X141360955Y-96171919D02*
X141218098Y-96171919D01*
X141218098Y-96171919D02*
X141075241Y-96219538D01*
X141075241Y-96219538D02*
X140980003Y-96314776D01*
X140980003Y-96314776D02*
X140932384Y-96410014D01*
X140932384Y-96410014D02*
X140884765Y-96600490D01*
X140884765Y-96600490D02*
X140884765Y-96743347D01*
X140884765Y-96743347D02*
X140932384Y-96933823D01*
X140932384Y-96933823D02*
X140980003Y-97029061D01*
X140980003Y-97029061D02*
X141075241Y-97124300D01*
X141075241Y-97124300D02*
X141218098Y-97171919D01*
X141218098Y-97171919D02*
X141313336Y-97171919D01*
X141313336Y-97171919D02*
X141456193Y-97124300D01*
X141456193Y-97124300D02*
X141503812Y-97076680D01*
X141503812Y-97076680D02*
X141503812Y-96743347D01*
X141503812Y-96743347D02*
X141313336Y-96743347D01*
X141932384Y-97171919D02*
X141932384Y-96171919D01*
X141932384Y-96171919D02*
X142503812Y-97171919D01*
X142503812Y-97171919D02*
X142503812Y-96171919D01*
X142980003Y-97171919D02*
X142980003Y-96171919D01*
X142980003Y-96171919D02*
X143218098Y-96171919D01*
X143218098Y-96171919D02*
X143360955Y-96219538D01*
X143360955Y-96219538D02*
X143456193Y-96314776D01*
X143456193Y-96314776D02*
X143503812Y-96410014D01*
X143503812Y-96410014D02*
X143551431Y-96600490D01*
X143551431Y-96600490D02*
X143551431Y-96743347D01*
X143551431Y-96743347D02*
X143503812Y-96933823D01*
X143503812Y-96933823D02*
X143456193Y-97029061D01*
X143456193Y-97029061D02*
X143360955Y-97124300D01*
X143360955Y-97124300D02*
X143218098Y-97171919D01*
X143218098Y-97171919D02*
X142980003Y-97171919D01*
X141503812Y-94623419D02*
X141170479Y-94147228D01*
X140932384Y-94623419D02*
X140932384Y-93623419D01*
X140932384Y-93623419D02*
X141313336Y-93623419D01*
X141313336Y-93623419D02*
X141408574Y-93671038D01*
X141408574Y-93671038D02*
X141456193Y-93718657D01*
X141456193Y-93718657D02*
X141503812Y-93813895D01*
X141503812Y-93813895D02*
X141503812Y-93956752D01*
X141503812Y-93956752D02*
X141456193Y-94051990D01*
X141456193Y-94051990D02*
X141408574Y-94099609D01*
X141408574Y-94099609D02*
X141313336Y-94147228D01*
X141313336Y-94147228D02*
X140932384Y-94147228D01*
X141884765Y-94575800D02*
X142027622Y-94623419D01*
X142027622Y-94623419D02*
X142265717Y-94623419D01*
X142265717Y-94623419D02*
X142360955Y-94575800D01*
X142360955Y-94575800D02*
X142408574Y-94528180D01*
X142408574Y-94528180D02*
X142456193Y-94432942D01*
X142456193Y-94432942D02*
X142456193Y-94337704D01*
X142456193Y-94337704D02*
X142408574Y-94242466D01*
X142408574Y-94242466D02*
X142360955Y-94194847D01*
X142360955Y-94194847D02*
X142265717Y-94147228D01*
X142265717Y-94147228D02*
X142075241Y-94099609D01*
X142075241Y-94099609D02*
X141980003Y-94051990D01*
X141980003Y-94051990D02*
X141932384Y-94004371D01*
X141932384Y-94004371D02*
X141884765Y-93909133D01*
X141884765Y-93909133D02*
X141884765Y-93813895D01*
X141884765Y-93813895D02*
X141932384Y-93718657D01*
X141932384Y-93718657D02*
X141980003Y-93671038D01*
X141980003Y-93671038D02*
X142075241Y-93623419D01*
X142075241Y-93623419D02*
X142313336Y-93623419D01*
X142313336Y-93623419D02*
X142456193Y-93671038D01*
X142741908Y-93623419D02*
X143313336Y-93623419D01*
X143027622Y-94623419D02*
X143027622Y-93623419D01*
X140837146Y-91073419D02*
X141456193Y-91073419D01*
X141456193Y-91073419D02*
X141122860Y-91454371D01*
X141122860Y-91454371D02*
X141265717Y-91454371D01*
X141265717Y-91454371D02*
X141360955Y-91501990D01*
X141360955Y-91501990D02*
X141408574Y-91549609D01*
X141408574Y-91549609D02*
X141456193Y-91644847D01*
X141456193Y-91644847D02*
X141456193Y-91882942D01*
X141456193Y-91882942D02*
X141408574Y-91978180D01*
X141408574Y-91978180D02*
X141360955Y-92025800D01*
X141360955Y-92025800D02*
X141265717Y-92073419D01*
X141265717Y-92073419D02*
X140980003Y-92073419D01*
X140980003Y-92073419D02*
X140884765Y-92025800D01*
X140884765Y-92025800D02*
X140837146Y-91978180D01*
X141741908Y-91073419D02*
X142075241Y-92073419D01*
X142075241Y-92073419D02*
X142408574Y-91073419D01*
X142646670Y-91073419D02*
X143265717Y-91073419D01*
X143265717Y-91073419D02*
X142932384Y-91454371D01*
X142932384Y-91454371D02*
X143075241Y-91454371D01*
X143075241Y-91454371D02*
X143170479Y-91501990D01*
X143170479Y-91501990D02*
X143218098Y-91549609D01*
X143218098Y-91549609D02*
X143265717Y-91644847D01*
X143265717Y-91644847D02*
X143265717Y-91882942D01*
X143265717Y-91882942D02*
X143218098Y-91978180D01*
X143218098Y-91978180D02*
X143170479Y-92025800D01*
X143170479Y-92025800D02*
X143075241Y-92073419D01*
X143075241Y-92073419D02*
X142789527Y-92073419D01*
X142789527Y-92073419D02*
X142694289Y-92025800D01*
X142694289Y-92025800D02*
X142646670Y-91978180D01*
X140932384Y-89523419D02*
X140932384Y-88523419D01*
X140932384Y-88523419D02*
X141503812Y-89523419D01*
X141503812Y-89523419D02*
X141503812Y-88523419D01*
X142551431Y-89428180D02*
X142503812Y-89475800D01*
X142503812Y-89475800D02*
X142360955Y-89523419D01*
X142360955Y-89523419D02*
X142265717Y-89523419D01*
X142265717Y-89523419D02*
X142122860Y-89475800D01*
X142122860Y-89475800D02*
X142027622Y-89380561D01*
X142027622Y-89380561D02*
X141980003Y-89285323D01*
X141980003Y-89285323D02*
X141932384Y-89094847D01*
X141932384Y-89094847D02*
X141932384Y-88951990D01*
X141932384Y-88951990D02*
X141980003Y-88761514D01*
X141980003Y-88761514D02*
X142027622Y-88666276D01*
X142027622Y-88666276D02*
X142122860Y-88571038D01*
X142122860Y-88571038D02*
X142265717Y-88523419D01*
X142265717Y-88523419D02*
X142360955Y-88523419D01*
X142360955Y-88523419D02*
X142503812Y-88571038D01*
X142503812Y-88571038D02*
X142551431Y-88618657D01*
X141456193Y-86071038D02*
X141360955Y-86023419D01*
X141360955Y-86023419D02*
X141218098Y-86023419D01*
X141218098Y-86023419D02*
X141075241Y-86071038D01*
X141075241Y-86071038D02*
X140980003Y-86166276D01*
X140980003Y-86166276D02*
X140932384Y-86261514D01*
X140932384Y-86261514D02*
X140884765Y-86451990D01*
X140884765Y-86451990D02*
X140884765Y-86594847D01*
X140884765Y-86594847D02*
X140932384Y-86785323D01*
X140932384Y-86785323D02*
X140980003Y-86880561D01*
X140980003Y-86880561D02*
X141075241Y-86975800D01*
X141075241Y-86975800D02*
X141218098Y-87023419D01*
X141218098Y-87023419D02*
X141313336Y-87023419D01*
X141313336Y-87023419D02*
X141456193Y-86975800D01*
X141456193Y-86975800D02*
X141503812Y-86928180D01*
X141503812Y-86928180D02*
X141503812Y-86594847D01*
X141503812Y-86594847D02*
X141313336Y-86594847D01*
X141932384Y-87023419D02*
X141932384Y-86023419D01*
X141932384Y-86023419D02*
X142503812Y-87023419D01*
X142503812Y-87023419D02*
X142503812Y-86023419D01*
X142980003Y-87023419D02*
X142980003Y-86023419D01*
X142980003Y-86023419D02*
X143218098Y-86023419D01*
X143218098Y-86023419D02*
X143360955Y-86071038D01*
X143360955Y-86071038D02*
X143456193Y-86166276D01*
X143456193Y-86166276D02*
X143503812Y-86261514D01*
X143503812Y-86261514D02*
X143551431Y-86451990D01*
X143551431Y-86451990D02*
X143551431Y-86594847D01*
X143551431Y-86594847D02*
X143503812Y-86785323D01*
X143503812Y-86785323D02*
X143456193Y-86880561D01*
X143456193Y-86880561D02*
X143360955Y-86975800D01*
X143360955Y-86975800D02*
X143218098Y-87023419D01*
X143218098Y-87023419D02*
X142980003Y-87023419D01*
D11*
X119366666Y-85754819D02*
X119366666Y-86469104D01*
X119366666Y-86469104D02*
X119319047Y-86611961D01*
X119319047Y-86611961D02*
X119223809Y-86707200D01*
X119223809Y-86707200D02*
X119080952Y-86754819D01*
X119080952Y-86754819D02*
X118985714Y-86754819D01*
X119747619Y-85754819D02*
X120366666Y-85754819D01*
X120366666Y-85754819D02*
X120033333Y-86135771D01*
X120033333Y-86135771D02*
X120176190Y-86135771D01*
X120176190Y-86135771D02*
X120271428Y-86183390D01*
X120271428Y-86183390D02*
X120319047Y-86231009D01*
X120319047Y-86231009D02*
X120366666Y-86326247D01*
X120366666Y-86326247D02*
X120366666Y-86564342D01*
X120366666Y-86564342D02*
X120319047Y-86659580D01*
X120319047Y-86659580D02*
X120271428Y-86707200D01*
X120271428Y-86707200D02*
X120176190Y-86754819D01*
X120176190Y-86754819D02*
X119890476Y-86754819D01*
X119890476Y-86754819D02*
X119795238Y-86707200D01*
X119795238Y-86707200D02*
X119747619Y-86659580D01*
X135866666Y-83854819D02*
X135866666Y-84569104D01*
X135866666Y-84569104D02*
X135819047Y-84711961D01*
X135819047Y-84711961D02*
X135723809Y-84807200D01*
X135723809Y-84807200D02*
X135580952Y-84854819D01*
X135580952Y-84854819D02*
X135485714Y-84854819D01*
X136295238Y-83950057D02*
X136342857Y-83902438D01*
X136342857Y-83902438D02*
X136438095Y-83854819D01*
X136438095Y-83854819D02*
X136676190Y-83854819D01*
X136676190Y-83854819D02*
X136771428Y-83902438D01*
X136771428Y-83902438D02*
X136819047Y-83950057D01*
X136819047Y-83950057D02*
X136866666Y-84045295D01*
X136866666Y-84045295D02*
X136866666Y-84140533D01*
X136866666Y-84140533D02*
X136819047Y-84283390D01*
X136819047Y-84283390D02*
X136247619Y-84854819D01*
X136247619Y-84854819D02*
X136866666Y-84854819D01*
X126866666Y-83854819D02*
X126866666Y-84569104D01*
X126866666Y-84569104D02*
X126819047Y-84711961D01*
X126819047Y-84711961D02*
X126723809Y-84807200D01*
X126723809Y-84807200D02*
X126580952Y-84854819D01*
X126580952Y-84854819D02*
X126485714Y-84854819D01*
X127866666Y-84854819D02*
X127295238Y-84854819D01*
X127580952Y-84854819D02*
X127580952Y-83854819D01*
X127580952Y-83854819D02*
X127485714Y-83997676D01*
X127485714Y-83997676D02*
X127390476Y-84092914D01*
X127390476Y-84092914D02*
X127295238Y-84140533D01*
D12*
%TO.C,J3*%
X122591000Y-87146000D02*
X122591000Y-93616000D01*
X121768530Y-93616000D02*
X122591000Y-93616000D01*
X121768530Y-87146000D02*
X122591000Y-87146000D01*
X120951000Y-88547529D02*
X120951000Y-88404471D01*
X120951000Y-87277529D02*
X120951000Y-87146000D01*
X120951000Y-87146000D02*
X121153470Y-87146000D01*
X120754471Y-88601000D02*
X120897529Y-88601000D01*
X120498530Y-93616000D02*
X121153470Y-93616000D01*
X119061000Y-93616000D02*
X119883470Y-93616000D01*
X119061000Y-88601000D02*
X119627529Y-88601000D01*
X119061000Y-88601000D02*
X119061000Y-93616000D01*
X119061000Y-87841000D02*
X119061000Y-87081000D01*
X119061000Y-87081000D02*
X120191000Y-87081000D01*
%TO.C,J2*%
X135416000Y-85173500D02*
X136746000Y-85173500D01*
X135416000Y-86503500D02*
X135416000Y-85173500D01*
X135416000Y-87773500D02*
X135416000Y-97993500D01*
X135416000Y-87773500D02*
X138016000Y-87773500D01*
X135416000Y-97993500D02*
X140616000Y-97993500D01*
X138016000Y-85173500D02*
X140616000Y-85173500D01*
X138016000Y-87773500D02*
X138016000Y-85173500D01*
X140616000Y-85173500D02*
X140616000Y-97993500D01*
%TO.C,J1*%
X126467000Y-85169000D02*
X127797000Y-85169000D01*
X126467000Y-86499000D02*
X126467000Y-85169000D01*
X126467000Y-87769000D02*
X126467000Y-97989000D01*
X126467000Y-87769000D02*
X129067000Y-87769000D01*
X126467000Y-97989000D02*
X131667000Y-97989000D01*
X129067000Y-85169000D02*
X131667000Y-85169000D01*
X129067000Y-87769000D02*
X129067000Y-85169000D01*
X131667000Y-85169000D02*
X131667000Y-97989000D01*
%TD*%
M02*
